<?xml version="1.0" standalone="no"?>
<!DOCTYPE svg PUBLIC "-//W3C//DTD SVG 1.1//EN"
  "http://www.w3.org/Graphics/SVG/1.1/DTD/svg11.dtd">
<svg version="1.1" xmlns="http://www.w3.org/2000/svg" xmlns:xlink="http://www.w3.org/1999/xlink" width="2848" height="1692" viewBox="-2816 -476 2848 1692" id="ccdiagram"><filter id="grayscale"><feColorMatrix type="matrix" values="0.3333 0.3333 0.3333 0 0 0.3333 0.3333 0.3333 0 0 0.3333 0.3333 0.3333 0 0 0 0 0 1 0"></feColorMatrix></filter><defs><style type="text/css">@import url('https://fonts.googleapis.com/css?family=Open+Sans:400,700|Inconsolata:400');</style></defs><g><rect x="-2816" y="-476" width="2848" height="1692" fill="#ffffff" id="interactionLayer"></rect><g pointer-events="auto"></g><g pointer-events="auto"><g opacity="1"><g id="cb0433e5-a636-485f-8877-9617c1f7b18f"><g><polygon points="-832 315, -576 463, -832 611, -1088 463" fill="#ececed"></polygon><svg x="-862" y="208" overflow="visible"><g fill="#00bcd4" fill-opacity="1" stroke="none" transform="scale(1.25) matrix(0.707 0.409 -0.707 0.409 0 0)"><path stroke="none" d="M144 93.924l-14.834 8.565v19.577l16.954 9.789 14.835-8.565-6.358-3.67-8.477 4.893-10.597-6.117V106.16l8.478-4.894z"></path><path stroke="none" d="M148.24 93.924v7.342l8.476 4.894v9.788l6.358 3.671v-17.13z"></path><path stroke="none" d="M141.881 118.471v-13.535h1.805v6.163l5.865-6.163h2.382l-6.118 6.587 6.65 6.948h-2.463l-6.316-6.316v6.316z"></path></g></svg><polygon points="-1088 475, -832 623, -832 611, -1088 463" fill="#d2d2d4" stroke="#83838a"></polygon><polygon points="-832 623, -576 475, -576 463, -832 611" fill="#b8b8bb" stroke="#83838a"></polygon><polygon points="-1088 481, -832 629, -832 623, -1088 475" fill="#008fa1" stroke="#008fa1"></polygon><polygon points="-832 629, -576 481, -576 475, -832 623" fill="#00626e" stroke="#00626e"></polygon><polygon points="-832 315, -1088 463, -1088 481, -832 629, -576 481, -576 463" fill="none" stroke="#000000" stroke-width="2"></polygon><clipPath id="clip-cb0433e5-a636-485f-8877-9617c1f7b18f"><rect x="-203.5125" y="972.3375" width="352.755" height="361.8"></rect></clipPath><text font-family="Open Sans" font-size="32pt" fill="#000000" font-weight="bold" x="-144.72" y="1017.5625" stroke="#ffffff" stroke-width="4" transform="matrix(0.707 0.409 -0.707 0.409 0 0)" clip-path="url(#clip-cb0433e5-a636-485f-8877-9617c1f7b18f)"><tspan>eks-np-dev-eks</tspan></text><text font-family="Open Sans" font-size="32pt" fill="#000000" font-weight="bold" x="-144.72" y="1017.5625" transform="matrix(0.707 0.409 -0.707 0.409 0 0)" clip-path="url(#clip-cb0433e5-a636-485f-8877-9617c1f7b18f)"><tspan>eks-np-dev-eks</tspan></text></g></g></g><g opacity="1"><g id="f166b0b0-60da-4133-aa95-f683c1e17658"><svg x="-2112" y="259" overflow="visible"><polygon points="0 0, 256 148, 192 185, -64 37" fill="#f5b720"></polygon><polygon points="0 0, 256 148, 192 185, -64 37" fill="none" stroke-width="20" stroke="#f5b720" opacity="1"></polygon><g cursor="nwse-resize"><polygon points="0 0, -19 -11, 13 -30, -83 -11, -115 44, -83 26, -64 37" fill="#f5b720"></polygon><polygon points="256 148, 275 159, 307 141, 275 196, 179 215, 211 196, 192 185" fill="#f5b720"></polygon></g></svg></g></g></g><g pointer-events="auto"><g opacity="1"><g id="sg-04687ca24132bc02c"><g><g><polygon points="-1568 463, -1504 463, -1312 352, -1312 315, -1536 185, -1760 315, -1760 352" stroke="#3f51b5" stroke-width="8" fill="none"></polygon></g><g><polygon points="-1536 185, -1568 167, -1760 278, -1760 315" stroke="#3f51b5" stroke-width="8" fill="#3f51b5"></polygon><text font-family="Inconsolata" font-size="20pt" font-weight="bold" fill="#ffffff" transform="translate(-1583 202) matrix(0.707 -0.409 0.707 0.409 0 0)" text-anchor="end">k8s-traffic-ek...</text><g transform="translate(-1568 176) matrix(0.707 0.409 -0.707 0.409 0 0)"><svg width="23" height="32" style="fill: rgb(255, 255, 255);"><svg xmlns="http://www.w3.org/2000/svg" width="23" height="32" viewBox="0 0 23 32"><path d="M19.429 17.143V5.714h-8v20.304c.911-.482 2.375-1.321 3.804-2.446 1.911-1.5 4.196-3.839 4.196-6.429zm3.428-13.714v13.714c0 7.518-10.518 12.268-10.964 12.464a1.049 1.049 0 0 1-.928 0C10.519 29.411.001 24.661.001 17.143V3.429c0-.625.518-1.143 1.143-1.143h20.571c.625 0 1.143.518 1.143 1.143z"></path></svg></svg></g></g></g></g></g><g opacity="1"><g id="sg-0e8937376aa0b43ee"><g><g><polygon points="-864 722, -800 722, -416 500, -416 463, -832 222, -1248 463, -1248 500" stroke="#4caf50" stroke-width="8" fill="none"></polygon></g><g><polygon points="-832 222, -864 204, -1088 333, -1088 370" stroke="#4caf50" stroke-width="8" fill="#4caf50"></polygon><text font-family="Inconsolata" font-size="20pt" font-weight="bold" fill="#ffffff" transform="translate(-879 239) matrix(0.707 -0.409 0.707 0.409 0 0)" text-anchor="end">eks-np-dev-eks-clu...</text><g transform="translate(-864 213) matrix(0.707 0.409 -0.707 0.409 0 0)"><svg width="23" height="32" style="fill: rgb(255, 255, 255);"><svg xmlns="http://www.w3.org/2000/svg" width="23" height="32" viewBox="0 0 23 32"><path d="M19.429 17.143V5.714h-8v20.304c.911-.482 2.375-1.321 3.804-2.446 1.911-1.5 4.196-3.839 4.196-6.429zm3.428-13.714v13.714c0 7.518-10.518 12.268-10.964 12.464a1.049 1.049 0 0 1-.928 0C10.519 29.411.001 24.661.001 17.143V3.429c0-.625.518-1.143 1.143-1.143h20.571c.625 0 1.143.518 1.143 1.143z"></path></svg></svg></g></g></g></g></g><g opacity="1"><g id="sg-0e2e7d5bd562f6b3c"><g><g><polygon points="-1184 907, -1120 907, -416 500, -416 463, -800 241, -864 241, -1056 352, -1120 352, -1792 -37, -2336 278, -2336 315, -1952 537, -1824 537" stroke="#9c27b0" stroke-width="8" fill="none"></polygon></g><g><polygon points="-1792 -37, -1824 -55, -2048 74, -2048 111" stroke="#9c27b0" stroke-width="8" fill="#9c27b0"></polygon><text font-family="Inconsolata" font-size="20pt" font-weight="bold" fill="#ffffff" transform="translate(-1839 -20) matrix(0.707 -0.409 0.707 0.409 0 0)" text-anchor="end">eks-cluster-sg-eks...</text><g transform="translate(-1824 -46) matrix(0.707 0.409 -0.707 0.409 0 0)"><svg width="23" height="32" style="fill: rgb(255, 255, 255);"><svg xmlns="http://www.w3.org/2000/svg" width="23" height="32" viewBox="0 0 23 32"><path d="M19.429 17.143V5.714h-8v20.304c.911-.482 2.375-1.321 3.804-2.446 1.911-1.5 4.196-3.839 4.196-6.429zm3.428-13.714v13.714c0 7.518-10.518 12.268-10.964 12.464a1.049 1.049 0 0 1-.928 0C10.519 29.411.001 24.661.001 17.143V3.429c0-.625.518-1.143 1.143-1.143h20.571c.625 0 1.143.518 1.143 1.143z"></path></svg></svg></g></g></g></g></g><g opacity="1"><g id="sg-078ebe646616fdb9d"><g><g><polygon points="-1568 463, -1504 463, -1312 352, -1312 315, -1536 185, -1760 315, -1760 352" stroke="#00bcd4" stroke-width="8" fill="none"></polygon></g><g><polygon points="-1536 185, -1568 167, -1760 278, -1760 315" stroke="#00bcd4" stroke-width="8" fill="#00bcd4"></polygon><text font-family="Inconsolata" font-size="20pt" font-weight="bold" fill="#ffffff" transform="translate(-1583 202) matrix(0.707 -0.409 0.707 0.409 0 0)" text-anchor="end">k8s-riker-8f50...</text><g transform="translate(-1568 176) matrix(0.707 0.409 -0.707 0.409 0 0)"><svg width="23" height="32" style="fill: rgb(255, 255, 255);"><svg xmlns="http://www.w3.org/2000/svg" width="23" height="32" viewBox="0 0 23 32"><path d="M19.429 17.143V5.714h-8v20.304c.911-.482 2.375-1.321 3.804-2.446 1.911-1.5 4.196-3.839 4.196-6.429zm3.428-13.714v13.714c0 7.518-10.518 12.268-10.964 12.464a1.049 1.049 0 0 1-.928 0C10.519 29.411.001 24.661.001 17.143V3.429c0-.625.518-1.143 1.143-1.143h20.571c.625 0 1.143.518 1.143 1.143z"></path></svg></svg></g></g></g></g></g></g><g pointer-events="auto"><g opacity="1"><g id="vpc-08a275dc645aa2abe"><g><g><polygon points="-1216 1184, 0 481, -1568 -425, -2784 278" stroke="#795548" stroke-width="8" fill="none"></polygon></g><g><polygon points="-1568 -425, -1600 -444, -1824 -314, -1824 -277" stroke="#795548" stroke-width="8" fill="#795548"></polygon><text font-family="Inconsolata" font-size="20pt" font-weight="bold" fill="#ffffff" transform="translate(-1608 -413) matrix(0.707 -0.409 0.707 0.409 0 0)" text-anchor="end">eks-np-dev-vpc</text><g transform="translate(-1600 -439) matrix(0.707 0.409 -0.707 0.409 0 0)"><svg width="34" height="32" style="fill: rgb(255, 255, 255);"><svg xmlns="http://www.w3.org/2000/svg" width="34" height="32" viewBox="0 0 34 32"><path d="M34.286 20.571a6.858 6.858 0 0 1-6.857 6.857H8c-4.411 0-8-3.589-8-8a7.993 7.993 0 0 1 4.607-7.232c-.018-.25-.036-.518-.036-.768a9.137 9.137 0 0 1 9.143-9.143c3.821 0 7.089 2.339 8.464 5.679a4.439 4.439 0 0 1 2.964-1.107 4.58 4.58 0 0 1 4.571 4.571 4.49 4.49 0 0 1-.732 2.464c3.036.714 5.304 3.429 5.304 6.679z"></path></svg></svg></g></g></g></g></g></g><g></g><g pointer-events="auto"><g opacity="1"><g id="subnet-09896f7a50e7a539d"><g><g><polygon transform="matrix(-0.707 -0.409 0.707 -0.409 0 0)" points="-452.25 -2170.8, -452.25 -723.6, 1447.2 -723.6, 1447.2 -2170.8" stroke-width="11.2" stroke="#9c27b0" stroke-dasharray="16" fill="none"></polygon></g><g><polygon points="-1536 -296, -1568 -314, -1792 -185, -1792 -148" stroke="#9c27b0" stroke-width="8" fill="#9c27b0"></polygon><text font-family="Inconsolata" font-size="20pt" font-weight="bold" fill="#ffffff" transform="translate(-1585 -278) matrix(0.707 -0.409 0.707 0.409 0 0)" text-anchor="end">eks-np-dev-vpc-pri...</text><g transform="translate(-1568 -305) matrix(0.707 0.409 -0.707 0.409 0 0)"><svg width="21" height="32" style="fill: rgb(255, 255, 255);"><svg xmlns="http://www.w3.org/2000/svg" width="21" height="32" viewBox="0 0 21 32"><path d="M5.714 13.714h9.143v-3.429c0-2.518-2.054-4.571-4.571-4.571s-4.571 2.054-4.571 4.571v3.429zm14.857 1.715v10.286c0 .946-.768 1.714-1.714 1.714H1.714A1.715 1.715 0 0 1 0 25.715V15.429c0-.946.768-1.714 1.714-1.714h.571v-3.429c0-4.393 3.607-8 8-8s8 3.607 8 8v3.429h.571c.946 0 1.714.768 1.714 1.714z"></path></svg></svg></g></g></g></g></g><g opacity="1"><g id="subnet-083981599c91604f3"><g><g><polygon transform="matrix(-0.707 -0.409 0.707 -0.409 0 0)" points="361.8 -1809, 361.8 -1175.8500000000001, 994.95 -1175.8500000000001, 994.95 -1809" stroke-width="11.2" stroke="#673ab7" stroke-dasharray="16" fill="none"></polygon></g><g><polygon points="-1536 74, -1568 56, -1792 185, -1792 222" stroke="#673ab7" stroke-width="8" fill="#673ab7"></polygon><text font-family="Inconsolata" font-size="20pt" font-weight="bold" fill="#ffffff" transform="translate(-1585 92) matrix(0.707 -0.409 0.707 0.409 0 0)" text-anchor="end">eks-np-dev-vpc-pub...</text><g transform="translate(-1568 65) matrix(0.707 0.409 -0.707 0.409 0 0)"><svg width="21" height="32" style="fill: rgb(255, 255, 255);"><svg xmlns="http://www.w3.org/2000/svg" width="21" height="32" viewBox="0 0 21 32"><path d="M5.714 13.714h9.143v-3.429c0-2.518-2.054-4.571-4.571-4.571s-4.571 2.054-4.571 4.571v3.429zm14.857 1.715v10.286c0 .946-.768 1.714-1.714 1.714H1.714A1.715 1.715 0 0 1 0 25.715V15.429c0-.946.768-1.714 1.714-1.714h.571v-3.429c0-4.393 3.607-8 8-8s8 3.607 8 8v3.429h.571c.946 0 1.714.768 1.714 1.714z"></path></svg></svg></g></g></g></g></g><g opacity="1"><g id="subnet-01f50d1282ecc14d9"><g><g><polygon transform="matrix(-0.707 -0.409 0.707 -0.409 0 0)" points="-452.25 -2170.8, -452.25 -723.6, 1447.2 -723.6, 1447.2 -2170.8" stroke-width="11.2" stroke="#3f51b5" stroke-dasharray="16" fill="none"></polygon></g><g><polygon points="-1536 -296, -1568 -314, -1792 -185, -1792 -148" stroke="#3f51b5" stroke-width="8" fill="#3f51b5"></polygon><text font-family="Inconsolata" font-size="20pt" font-weight="bold" fill="#ffffff" transform="translate(-1585 -278) matrix(0.707 -0.409 0.707 0.409 0 0)" text-anchor="end">eks-np-dev-vpc-pri...</text><g transform="translate(-1568 -305) matrix(0.707 0.409 -0.707 0.409 0 0)"><svg width="21" height="32" style="fill: rgb(255, 255, 255);"><svg xmlns="http://www.w3.org/2000/svg" width="21" height="32" viewBox="0 0 21 32"><path d="M5.714 13.714h9.143v-3.429c0-2.518-2.054-4.571-4.571-4.571s-4.571 2.054-4.571 4.571v3.429zm14.857 1.715v10.286c0 .946-.768 1.714-1.714 1.714H1.714A1.715 1.715 0 0 1 0 25.715V15.429c0-.946.768-1.714 1.714-1.714h.571v-3.429c0-4.393 3.607-8 8-8s8 3.607 8 8v3.429h.571c.946 0 1.714.768 1.714 1.714z"></path></svg></svg></g></g></g></g></g><g opacity="1"><g id="subnet-09183a3ae8134b7cd"><g><g><polygon transform="matrix(-0.707 -0.409 0.707 -0.409 0 0)" points="361.8 -1809, 361.8 -1175.8500000000001, 994.95 -1175.8500000000001, 994.95 -1809" stroke-width="11.2" stroke="#f44336" stroke-dasharray="16" fill="none"></polygon></g><g><polygon points="-1536 74, -1568 56, -1792 185, -1792 222" stroke="#f44336" stroke-width="8" fill="#f44336"></polygon><text font-family="Inconsolata" font-size="20pt" font-weight="bold" fill="#ffffff" transform="translate(-1585 92) matrix(0.707 -0.409 0.707 0.409 0 0)" text-anchor="end">eks-np-dev-vpc-pub...</text><g transform="translate(-1568 65) matrix(0.707 0.409 -0.707 0.409 0 0)"><svg width="21" height="32" style="fill: rgb(255, 255, 255);"><svg xmlns="http://www.w3.org/2000/svg" width="21" height="32" viewBox="0 0 21 32"><path d="M5.714 13.714h9.143v-3.429c0-2.518-2.054-4.571-4.571-4.571s-4.571 2.054-4.571 4.571v3.429zm14.857 1.715v10.286c0 .946-.768 1.714-1.714 1.714H1.714A1.715 1.715 0 0 1 0 25.715V15.429c0-.946.768-1.714 1.714-1.714h.571v-3.429c0-4.393 3.607-8 8-8s8 3.607 8 8v3.429h.571c.946 0 1.714.768 1.714 1.714z"></path></svg></svg></g></g></g></g></g></g><g pointer-events="auto"></g><g pointer-events="none"></g><g pointer-events="auto"><g id="72cfa7ea-ded0-4ffb-b032-6e4d5e2469c3-f8015ccb-eaf5-40c7-9e5b-784f50a37314"><g cursor="cell"><line x1="-1504" y1="241" x2="-1489" y2="297" stroke="red" stroke-width="8" opacity="0"></line><line x1="-1504" y1="241" x2="-1489" y2="297" stroke="#000000" stroke-width="2" stroke-linecap="round"></line><polygon points="-1487 305, -1479 289, -1489 294, -1502 291, -1487 305" stroke-linejoin="round" fill="#000000" stroke="#000000" stroke-width="1"></polygon></g></g><g id="cb0433e5-a636-485f-8877-9617c1f7b18f-f166b0b0-60da-4133-aa95-f683c1e17658"><g><g cursor="cell"><line x1="-976" y1="398" x2="-1840" y2="342" stroke="red" stroke-width="8" opacity="0"></line><line x1="-976" y1="398" x2="-1840" y2="342" stroke="#000000" stroke-width="2" stroke-linecap="round"></line></g><g cursor="cell"><line x1="-2038" y1="253" x2="-2032" y2="250" stroke="red" stroke-width="8" opacity="0"></line><line x1="-2038" y1="253" x2="-2032" y2="250" stroke="#000000" stroke-width="2" stroke-linecap="none"></line><polygon points="-2048 259, -2022 254, -2036 252, -2039 244, -2048 259" stroke-linejoin="round" fill="#000000" stroke="#000000" stroke-width="1"></polygon></g><g cursor="cell"><line x1="-2000" y1="250" x2="-2032" y2="250" stroke="red" stroke-width="8" opacity="0"></line><line x1="-2000" y1="250" x2="-2032" y2="250" stroke="#000000" stroke-width="2" stroke-linecap="round"></line></g><g cursor="cell"><line x1="-1942" y1="309" x2="-1920" y2="296" stroke="red" stroke-width="8" opacity="0"></line><line x1="-1942" y1="309" x2="-1920" y2="296" stroke="#000000" stroke-width="2" stroke-linecap="none"></line><polygon points="-1952 315, -1926 309, -1940 307, -1943 300, -1952 315" stroke-linejoin="round" fill="#000000" stroke="#000000" stroke-width="1"></polygon></g><g cursor="cell"><line x1="-1846" y1="364" x2="-1840" y2="361" stroke="red" stroke-width="8" opacity="0"></line><line x1="-1846" y1="364" x2="-1840" y2="361" stroke="#000000" stroke-width="2" stroke-linecap="none"></line><polygon points="-1856 370, -1830 365, -1844 363, -1847 355, -1856 370" stroke-linejoin="round" fill="#000000" stroke="#000000" stroke-width="1"></polygon></g><g cursor="cell"><line x1="-1840" y1="342" x2="-1840" y2="361" stroke="red" stroke-width="8" opacity="0"></line><line x1="-1840" y1="342" x2="-1840" y2="361" stroke="#000000" stroke-width="2" stroke-linecap="round"></line></g><g cursor="cell"><line x1="-2000" y1="250" x2="-1840" y2="342" stroke="red" stroke-width="8" opacity="0"></line><line x1="-2000" y1="250" x2="-1840" y2="342" stroke="#000000" stroke-width="2" stroke-linecap="round"></line></g></g></g><g id="f8015ccb-eaf5-40c7-9e5b-784f50a37314-5ad7bee2-2217-472d-917c-779fa0563aec"><g cursor="cell"><line x1="-1584" y1="305" x2="-2066" y2="314" stroke="red" stroke-width="8" opacity="0"></line><line x1="-1584" y1="305" x2="-2066" y2="314" stroke="#000000" stroke-width="2" stroke-linecap="round"></line><polygon points="-2080 315, -2055 321, -2062 314, -2056 307, -2080 315" stroke-linejoin="round" fill="#000000" stroke="#000000" stroke-width="1"></polygon></g></g><g id="f8015ccb-eaf5-40c7-9e5b-784f50a37314-25d962a4-e330-4aea-9125-40797411794b"><g cursor="cell"><line x1="-1568" y1="352" x2="-1939" y2="316" stroke="red" stroke-width="8" opacity="0"></line><line x1="-1568" y1="352" x2="-1939" y2="316" stroke="#000000" stroke-width="2" stroke-linecap="round"></line><polygon points="-1952 315, -1930 323, -1935 316, -1926 310, -1952 315" stroke-linejoin="round" fill="#000000" stroke="#000000" stroke-width="1"></polygon></g></g></g><g pointer-events="auto"><g opacity="1"><g id="72cfa7ea-ded0-4ffb-b032-6e4d5e2469c3" transform="translate(0 0)"><svg x="-1529" y="160" height="93.28" width="81" viewBox="0 0 21.431 24.68"><path d="m.267 5.103 12.538 7.237 5.224-.603 3.134-9.048-4.18-2.412-15.67 1.81z" fill="#ececed" fill-rule="evenodd"></path><path d="M.267 5.103v12.063l12.538 7.238V12.34zm12.538 7.237 5.224-.603v12.064l-5.224.603z" fill="#d2d2d4" fill-rule="evenodd"></path><path d="m18.029 11.737 3.134-9.048v12.064l-3.134 9.048z" fill="#b8b8bb" fill-rule="evenodd"></path><path d="m.267 5.103 12.538 7.237 5.224-.603 3.134-9.048m-3.134 9.048v12.064M12.805 12.34v12.064" fill="none" stroke="#83838a" stroke-width=".265"></path><path d="m.267 17.166 12.538 7.238 5.224-.603 3.134-9.048V2.689L16.983.277l-15.67 1.81L.268 5.102z" fill="none" stroke="#000000" stroke-width=".529"></path><path d="M16.852 3.319c-.637-.01-1.269-.156-1.755-.437-.487-.28-.739-.645-.757-1.013l-3.498.035c.111.43-.12.884-.694 1.215-.363.21-.812.34-1.281.392-.625.067-1.226.241-1.71.52-1.272.736-1.277 1.926-.013 2.664.734.423 1.146.957 1.248 1.509.956.059 1.88.297 2.613.72 1.279.73 3.34.727 4.613-.008.484-.28.785-.626.903-.987.088-.27.314-.53.678-.74.573-.33 1.359-.464 2.104-.4l.06-2.02c-.636-.01-1.268-.156-1.754-.437-.487-.28-.739-.645-.757-1.013z" fill="none"></path><path d="M17.277 4.302c.467.27 1.056.427 1.664.471l-.05 1.693c-.73-.014-1.467.14-2.023.462-.404.234-.655.522-.754.824-.107.33-.382.647-.823.902-1.161.672-3.041.674-4.208.007-.722-.417-1.618-.665-2.554-.749-.145-.541-.574-1.06-1.296-1.478-1.152-.675-1.147-1.762.014-2.433.44-.255.988-.414 1.559-.476.521-.057 1.02-.203 1.424-.436.556-.322.823-.748.8-1.17l2.926-.03c.076.352.348.693.815.963.473.274 1.07.432 1.687.474.073.356.346.702.819.976z" fill="#4286c5" fill-rule="evenodd"></path><g fill="#ffffff" font-family="sans-serif" font-size="3.217" stroke-width=".268" style="line-height: 0%;"><path d="M177.61 45.984h2.004v.43h-1.537v.925q.112-.038.223-.056.11-.02.222-.02.632 0 1.001.346.369.346.369.938 0 .609-.38.948-.378.336-1.068.336-.238 0-.485-.04-.246-.041-.508-.122v-.513q.227.124.47.184.242.061.513.061.437 0 .692-.23.255-.23.255-.624t-.255-.624q-.255-.23-.692-.23-.205 0-.41.045-.202.046-.414.142zm4.837 1.739q.367.078.571.326.208.248.208.612 0 .558-.385.864-.384.306-1.091.306-.238 0-.49-.048-.25-.046-.519-.14v-.492q.212.124.465.187t.528.063q.48 0 .73-.19.254-.189.254-.55 0-.334-.235-.521-.233-.19-.65-.19h-.44v-.42h.46q.377 0 .576-.148.2-.152.2-.435 0-.29-.207-.445-.205-.157-.589-.157-.21 0-.45.046-.24.045-.528.142v-.455q.29-.081.543-.122.256-.04.48-.04.582 0 .92.265.34.263.34.713 0 .313-.18.53-.18.216-.51.299z" font-family="Interstate" font-size="5.176" transform="scale(1.31486 .76054) rotate(45 142.927 -178.732)" style="line-height: 1.25;"></path></g></svg></g></g><g opacity="1"><g id="95616f71-e15c-4602-b14b-d514f974ce80" transform="translate(0 0)"><svg x="-1598" y="187" height="108.05" width="123" viewBox="0 0 32.544 28.588"><path d="M10.115 6.02v14.218l7.873-4.317V1.475z" fill="#b8b8bb" fill-rule="evenodd" stroke="#83838a" stroke-linejoin="round" stroke-width=".268"></path><path d="m.265 2.228 9.85 3.792v14.218l-9.85-8.53z" fill="#d2d2d4" fill-rule="evenodd" stroke="#83838a" stroke-linejoin="round" stroke-width=".265"></path><path d="m10.115 6.02 7.873-4.545L3.548.332.265 2.228z" fill="#ececed" fill-rule="evenodd" stroke="#83838a" stroke-linejoin="round" stroke-width=".265"></path><path d="m.265 11.707 9.85 8.531 7.873-4.317V1.475L3.392.271.265 2.077z" fill="none" stroke="#000000" stroke-width=".529"></path><path d="m22.429 3.65-8.208 4.74 14.827 10.397 3.231-1.865z" fill="#ececed" fill-rule="evenodd" stroke="#83838a" stroke-width=".268"></path><path d="M14.22 8.391v14.218l14.777 5.687.051-9.509z" fill="#d2d2d4" fill-rule="evenodd" stroke="#83838a" stroke-width=".265"></path><path d="m29.048 18.787 3.231-1.865V26.4l-3.282 1.897z" fill="#b8b8bb" fill-rule="evenodd" stroke="#83838a" stroke-width=".265"></path><path d="m22.429 3.65-8.208 4.74v14.22l14.776 5.686 3.282-1.896v-9.478z" fill="none" stroke="#000000" stroke-width=".529"></path><path d="m18.582 19.765-1.527-.59c-.28-.108-.508-.02-.508.197v1.178c0 .217.227.481.508.59l1.527.589c.28.108.509.02.509-.196v-1.18c0-.216-.228-.48-.51-.588zm-.382-1.13 3.053 1.179v.59l.763.294v-.59l3.053 1.179v.59l.763.294v-.707c0-.26-.274-.577-.61-.707l-3.206-1.238v-.786l.636.246c.281.108.509.02.509-.197v-1.177c0-.217-.228-.481-.509-.59l-2.035-.785c-.28-.109-.509-.02-.509.196v1.179c0 .217.228.48.509.59l.636.245v.785l-3.205-1.237c-.337-.13-.61-.024-.61.236v.707l.762.294zm4.198 2.603-1.527-.59c-.28-.108-.508-.02-.508.197v1.179c0 .217.227.48.508.589l1.527.59c.28.108.509.02.509-.197v-1.179c0-.217-.228-.48-.51-.59zm3.816 1.473-1.527-.59c-.28-.108-.508-.02-.508.197v1.179c0 .217.227.48.508.59l1.527.589c.28.108.509.02.509-.197v-1.178c0-.217-.228-.481-.51-.59z" fill="#4286c5"></path></svg></g></g><g opacity="1"><g id="f8015ccb-eaf5-40c7-9e5b-784f50a37314" transform="translate(0 0)"><svg x="-1584" y="268" height="94" width="97" fill-rule="evenodd" stroke-miterlimit="1" xml:space="preserve"><path d="M0 18.6v18.6l32.333 18.6h32.334L97 37.2V18.6L64.667 0H32.333L0 18.6Z" fill="#ececed"></path><path d="M64.667 55.8 97 37.2v37.2L64.667 93V55.8Z" fill="#b8b8bb"></path><path d="M32.333 55.8h32.334V93H32.333V55.8ZM0 37.2v37.2L32.333 93V55.8L0 37.2Z" fill="#d2d2d4"></path><path d="M.955 37.877 32.333 55.8h32.334l31.378-17.923M32.333 55.8v36.211M64.667 55.8v36.574" fill="none" stroke="#83838a" stroke-width="1.04"></path><path d="M97 18.6v55.8L64.667 93H32.333L0 74.4V18.6L32.333 0h32.334L97 18.6ZM32.865 1.989 1.989 19.751v53.498l30.876 17.762h31.27l30.876-17.762V19.751L64.135 1.989h-31.27Z" fill="#000000"></path><path d="M69.912 15.583c11.818 6.798 11.818 17.836 0 24.635-11.817 6.798-31.007 6.798-42.824 0-11.818-6.799-11.818-17.837 0-24.635 11.817-6.799 31.007-6.799 42.824 0Z" fill="#4286c5"></path><path d="M49.584 14.774c1.824 1.049 1.824 2.753 0 3.802-1.824 1.05-4.786 1.05-6.61 0-1.824-1.049-1.824-2.753 0-3.802 1.824-1.05 4.786-1.05 6.61 0Zm10.867 6.251c1.825 1.049 1.825 2.753 0 3.803-1.824 1.049-4.786 1.049-6.61 0-1.824-1.05-1.824-2.754 0-3.803s4.786-1.049 6.61 0Zm10.868 6.251c1.824 1.05 1.824 2.754 0 3.803-1.825 1.049-4.787 1.049-6.611 0-1.824-1.049-1.824-2.753 0-3.803 1.824-1.049 4.786-1.049 6.611 0Zm-32.822 6.378c1.824 1.05 1.824 2.754 0 3.803-1.825 1.05-4.787 1.05-6.611 0-1.824-1.049-1.824-2.753 0-3.803 1.824-1.049 4.786-1.049 6.611 0Z" fill="#ffffff"></path><path d="M47.458 15.878c.453.26.393.717-.133 1.02-.526.303-1.32.337-1.773.076-.452-.26-.392-.717.133-1.019.526-.303 1.321-.337 1.773-.077Z" fill="#ffffff"></path><path d="M48.111 15.621c1.012.582 1.012 1.526 0 2.108-1.011.582-2.653.582-3.664 0-1.012-.582-1.012-1.526 0-2.108 1.011-.582 2.653-.582 3.664 0Zm10.867 6.251c1.012.582 1.012 1.527 0 2.108-1.011.582-2.653.582-3.664 0-1.012-.581-1.012-1.526 0-2.108 1.011-.581 2.653-.581 3.664 0Zm10.868 6.252c1.011.581 1.011 1.526 0 2.108-1.012.582-2.654.582-3.665 0-1.011-.582-1.011-1.527 0-2.108 1.011-.582 2.653-.582 3.665 0Z" fill="#4286c5"></path><path d="M37.024 34.502c1.011.582 1.011 1.526 0 2.108-1.012.582-2.654.582-3.665 0-1.011-.582-1.011-1.526 0-2.108 1.011-.582 2.653-.582 3.665 0Zm15.277-9.33L37.719 33.56l.482.834 14.584-8.388-.484-.834Z" fill="#ffffff"></path><path d="m46.993 26.089 6.654-1.146-4.324 5.168c.189-1.691-.757-3.313-2.33-4.022Z" fill="#ffffff" stroke="#ffffff" stroke-width=".36"></path><path d="m43.488 19.937-6.057 13.797.886.387 6.056-13.798-.885-.386Z" fill="#ffffff"></path><path d="m39.76 23.812 4.676-4.854-.405 6.716c-.855-1.474-2.582-2.221-4.271-1.862Z" fill="#ffffff" stroke="#ffffff" stroke-width=".36"></path><path d="m61.953 30.061-23.985 3.483.14.955 23.985-3.486-.14-.952Z" fill="#ffffff"></path><path d="m56.68 28.957 6.608 1.387-5.936 3.209c.804-1.503.526-3.358-.672-4.596Z" fill="#ffffff" stroke="#ffffff" stroke-width=".36"></path><path d="m37.96 33.977 13.12-7.547m-13.207 7.497 5.792-13.134m-5.628 13.229 22.478-3.281" fill="#ffffff" stroke="#ffffff" stroke-width="1.93"></path></svg></g></g><g opacity="1"><g id="5ad7bee2-2217-472d-917c-779fa0563aec" transform="translate(0 0)"><svg x="-2176" y="222" height="111" width="128" fill-rule="evenodd" stroke-linejoin="round" stroke-miterlimit="1.414" xml:space="preserve"><path d="M64 74v37l64-37V37L64 74Z" fill="#b8b8bb"></path><path d="M0 37v37l64 37V74L0 37Z" fill="#d2d2d4"></path><path d="M0 37 64 0l64 37-64 37L0 37Z" fill="#ececed"></path><path d="m64 73.407 62.111-35.86.514.889-62.487 36.078h-.276L.743 38.072l.514-.89L64 73.407Z" fill="#83838a"></path><path d="M63.486 74h1.027v36h-1.027z" fill="#83838a"></path><path d="M128 37v37l-64 37L0 74V37L64 0l64 37ZM2.054 38.185v34.63L64 108.627l61.946-35.812v-34.63L64 2.373 2.054 38.185Z" fill="#000000"></path></svg><svg x="-2118" y="241" width="54" height="36" style="overflow: visible; cursor: default;"><rect transform="matrix(0.707 0.409 -0.707 0.409 0 0)" width="54" height="36" rx="5" ry="5" fill="#4286c5"></rect><text transform="matrix(0.707 0.409 -0.707 0.409 0 0)" font-family="Open Sans" text-anchor="middle" x="50%" font-weight="normal" font-size="20pt" y="80%" fill="#ffffff"><tspan>M5</tspan></text></svg></g></g><g opacity="1"><g id="25d962a4-e330-4aea-9125-40797411794b" transform="translate(0 0)"><svg x="-2080" y="278" height="111" width="128" fill-rule="evenodd" stroke-linejoin="round" stroke-miterlimit="1.414" xml:space="preserve"><path d="M64 74v37l64-37V37L64 74Z" fill="#b8b8bb"></path><path d="M0 37v37l64 37V74L0 37Z" fill="#d2d2d4"></path><path d="M0 37 64 0l64 37-64 37L0 37Z" fill="#ececed"></path><path d="m64 73.407 62.111-35.86.514.889-62.487 36.078h-.276L.743 38.072l.514-.89L64 73.407Z" fill="#83838a"></path><path d="M63.486 74h1.027v36h-1.027z" fill="#83838a"></path><path d="M128 37v37l-64 37L0 74V37L64 0l64 37ZM2.054 38.185v34.63L64 108.627l61.946-35.812v-34.63L64 2.373 2.054 38.185Z" fill="#000000"></path></svg><svg x="-2022" y="296" width="54" height="36" style="overflow: visible; cursor: default;"><rect transform="matrix(0.707 0.409 -0.707 0.409 0 0)" width="54" height="36" rx="5" ry="5" fill="#4286c5"></rect><text transform="matrix(0.707 0.409 -0.707 0.409 0 0)" font-family="Open Sans" text-anchor="middle" x="50%" font-weight="normal" font-size="20pt" y="80%" fill="#ffffff"><tspan>M5</tspan></text></svg></g></g><g opacity="1"><g id="434fdc9f-7d95-473d-bda5-b15053768dae" transform="translate(0 0)"><svg x="-1984" y="333" height="111" width="128" fill-rule="evenodd" stroke-linejoin="round" stroke-miterlimit="1.414" xml:space="preserve"><path d="M64 74v37l64-37V37L64 74Z" fill="#b8b8bb"></path><path d="M0 37v37l64 37V74L0 37Z" fill="#d2d2d4"></path><path d="M0 37 64 0l64 37-64 37L0 37Z" fill="#ececed"></path><path d="m64 73.407 62.111-35.86.514.889-62.487 36.078h-.276L.743 38.072l.514-.89L64 73.407Z" fill="#83838a"></path><path d="M63.486 74h1.027v36h-1.027z" fill="#83838a"></path><path d="M128 37v37l-64 37L0 74V37L64 0l64 37ZM2.054 38.185v34.63L64 108.627l61.946-35.812v-34.63L64 2.373 2.054 38.185Z" fill="#000000"></path></svg><svg x="-1926" y="352" width="54" height="36" style="overflow: visible; cursor: default;"><rect transform="matrix(0.707 0.409 -0.707 0.409 0 0)" width="54" height="36" rx="5" ry="5" fill="#4286c5"></rect><text transform="matrix(0.707 0.409 -0.707 0.409 0 0)" font-family="Open Sans" text-anchor="middle" x="50%" font-weight="normal" font-size="20pt" y="80%" fill="#ffffff"><tspan>M5</tspan></text></svg></g></g></g><g pointer-events="auto"></g><g pointer-events="auto"></g><g pointer-events="auto"><g></g><g></g><g></g><g></g><g></g><g></g><g></g><g></g><g></g><g></g></g></g></svg>