<?xml version="1.0" standalone="no"?>
<!DOCTYPE svg PUBLIC "-//W3C//DTD SVG 1.1//EN"
  "http://www.w3.org/Graphics/SVG/1.1/DTD/svg11.dtd">
<svg version="1.1" xmlns="http://www.w3.org/2000/svg" xmlns:xlink="http://www.w3.org/1999/xlink" width="6298" height="3033" viewBox="-1962 33 6298 3033" id="ccdiagram"><filter id="grayscale"><feColorMatrix type="matrix" values="0.3333 0.3333 0.3333 0 0 0.3333 0.3333 0.3333 0 0 0.3333 0.3333 0.3333 0 0 0 0 0 1 0"></feColorMatrix></filter><defs><style type="text/css">@import url('https://fonts.googleapis.com/css?family=Open+Sans:400,700|Inconsolata:400');</style></defs><g><rect x="-1962" y="33" width="6298" height="3033" fill="#ffffff" id="interactionLayer"></rect><g pointer-events="auto"></g><g pointer-events="auto"><g opacity="1"><g id="acc7eaf5-10eb-4bae-af0d-a7f94a81bb13"><g><polygon points="192 426, 3904 2572, 3520 2794, -192 648" fill="#ececed"></polygon><svg x="162" y="319" overflow="visible"><g fill="#00bcd4" fill-opacity="1" stroke="none" transform="scale(1.25) matrix(0.707 0.409 -0.707 0.409 0 0)"><path stroke="none" d="M144 93.924l-14.834 8.565v19.577l16.954 9.789 14.835-8.565-6.358-3.67-8.477 4.893-10.597-6.117V106.16l8.478-4.894z"></path><path stroke="none" d="M148.24 93.924v7.342l8.476 4.894v9.788l6.358 3.671v-17.13z"></path><path stroke="none" d="M141.881 118.471v-13.535h1.805v6.163l5.865-6.163h2.382l-6.118 6.587 6.65 6.948h-2.463l-6.316-6.316v6.316z"></path></g></svg><polygon points="-192 660, 3520 2806, 3520 2794, -192 648" fill="#d2d2d4" stroke="#83838a"></polygon><polygon points="3520 2806, 3904 2584, 3904 2572, 3520 2794" fill="#b8b8bb" stroke="#83838a"></polygon><polygon points="-192 666, 3520 2812, 3520 2806, -192 660" fill="#008fa1" stroke="#008fa1"></polygon><polygon points="3520 2812, 3904 2590, 3904 2584, 3520 2806" fill="#00626e" stroke="#00626e"></polygon><polygon points="192 426, -192 648, -192 666, 3520 2812, 3904 2590, 3904 2572" fill="none" stroke="#000000" stroke-width="2"></polygon><clipPath id="clip-acc7eaf5-10eb-4bae-af0d-a7f94a81bb13"><rect x="655.7625" y="384.41249999999997" width="5237.055" height="542.7"></rect></clipPath><text font-family="Open Sans" font-size="32pt" fill="#000000" font-weight="bold" x="714.5550000000001" y="429.6375" stroke="#ffffff" stroke-width="4" transform="matrix(0.707 0.409 -0.707 0.409 0 0)" clip-path="url(#clip-acc7eaf5-10eb-4bae-af0d-a7f94a81bb13)"><tspan>eks-np-dev-eks</tspan></text><text font-family="Open Sans" font-size="32pt" fill="#000000" font-weight="bold" x="714.5550000000001" y="429.6375" transform="matrix(0.707 0.409 -0.707 0.409 0 0)" clip-path="url(#clip-acc7eaf5-10eb-4bae-af0d-a7f94a81bb13)"><tspan>eks-np-dev-eks</tspan></text></g></g></g></g><g pointer-events="auto"></g><g pointer-events="auto"><g opacity="1"><g id="vpc-08a275dc645aa2abe"><g><g><polygon points="3520 3034, 4304 2581, -16 83, -800 537" stroke="#795548" stroke-width="8" fill="none"></polygon></g><g><polygon points="-16 83, -48 65, -272 194, -272 231" stroke="#795548" stroke-width="8" fill="#795548"></polygon><text font-family="Inconsolata" font-size="20pt" font-weight="bold" fill="#ffffff" transform="translate(-56 96) matrix(0.707 -0.409 0.707 0.409 0 0)" text-anchor="end">eks-np-dev-vpc</text><g transform="translate(-48 69) matrix(0.707 0.409 -0.707 0.409 0 0)"><svg width="34" height="32" style="fill: rgb(255, 255, 255);"><svg xmlns="http://www.w3.org/2000/svg" width="34" height="32" viewBox="0 0 34 32"><path d="M34.286 20.571a6.858 6.858 0 0 1-6.857 6.857H8c-4.411 0-8-3.589-8-8a7.993 7.993 0 0 1 4.607-7.232c-.018-.25-.036-.518-.036-.768a9.137 9.137 0 0 1 9.143-9.143c3.821 0 7.089 2.339 8.464 5.679a4.439 4.439 0 0 1 2.964-1.107 4.58 4.58 0 0 1 4.571 4.571 4.49 4.49 0 0 1-.732 2.464c3.036.714 5.304 3.429 5.304 6.679z"></path></svg></svg></g></g></g></g></g></g><g></g><g pointer-events="auto"><g opacity="1"><g id="subnet-09896f7a50e7a539d"><g><g><polygon transform="matrix(-0.707 -0.409 0.707 -0.409 0 0)" points="-6060.150000000001 -1085.4, -6060.150000000001 -271.35, -542.7 -271.35, -542.7 -1085.4" stroke-width="11.2" stroke="#9c27b0" stroke-dasharray="16" fill="none"></polygon></g><g><polygon points="192 333, 160 315, -64 444, -64 481" stroke="#9c27b0" stroke-width="8" fill="#9c27b0"></polygon><text font-family="Inconsolata" font-size="20pt" font-weight="bold" fill="#ffffff" transform="translate(143 351) matrix(0.707 -0.409 0.707 0.409 0 0)" text-anchor="end">eks-np-dev-vpc-pri...</text><g transform="translate(160 324) matrix(0.707 0.409 -0.707 0.409 0 0)"><svg width="21" height="32" style="fill: rgb(255, 255, 255);"><svg xmlns="http://www.w3.org/2000/svg" width="21" height="32" viewBox="0 0 21 32"><path d="M5.714 13.714h9.143v-3.429c0-2.518-2.054-4.571-4.571-4.571s-4.571 2.054-4.571 4.571v3.429zm14.857 1.715v10.286c0 .946-.768 1.714-1.714 1.714H1.714A1.715 1.715 0 0 1 0 25.715V15.429c0-.946.768-1.714 1.714-1.714h.571v-3.429c0-4.393 3.607-8 8-8s8 3.607 8 8v3.429h.571c.946 0 1.714.768 1.714 1.714z"></path></svg></svg></g></g></g></g></g><g opacity="1"><g id="subnet-083981599c91604f3"><g><g><polygon transform="matrix(-0.707 -0.409 0.707 -0.409 0 0)" points="-633.15 -633.15, -633.15 -271.35, -271.35 -271.35, -271.35 -633.15" stroke-width="11.2" stroke="#673ab7" stroke-dasharray="16" fill="none"></polygon></g><g><polygon points="0 222, -32 204, -224 315, -224 352" stroke="#673ab7" stroke-width="8" fill="#673ab7"></polygon><text font-family="Inconsolata" font-size="20pt" font-weight="bold" fill="#ffffff" transform="translate(-49 240) matrix(0.707 -0.409 0.707 0.409 0 0)" text-anchor="end">eks-np-dev-vpc...</text><g transform="translate(-32 213) matrix(0.707 0.409 -0.707 0.409 0 0)"><svg width="21" height="32" style="fill: rgb(255, 255, 255);"><svg xmlns="http://www.w3.org/2000/svg" width="21" height="32" viewBox="0 0 21 32"><path d="M5.714 13.714h9.143v-3.429c0-2.518-2.054-4.571-4.571-4.571s-4.571 2.054-4.571 4.571v3.429zm14.857 1.715v10.286c0 .946-.768 1.714-1.714 1.714H1.714A1.715 1.715 0 0 1 0 25.715V15.429c0-.946.768-1.714 1.714-1.714h.571v-3.429c0-4.393 3.607-8 8-8s8 3.607 8 8v3.429h.571c.946 0 1.714.768 1.714 1.714z"></path></svg></svg></g></g></g></g></g><g opacity="1"><g id="subnet-01f50d1282ecc14d9"><g><g><polygon transform="matrix(-0.707 -0.409 0.707 -0.409 0 0)" points="-6060.150000000001 -1085.4, -6060.150000000001 -271.35, -542.7 -271.35, -542.7 -1085.4" stroke-width="11.2" stroke="#3f51b5" stroke-dasharray="16" fill="none"></polygon></g><g><polygon points="192 333, 160 315, -64 444, -64 481" stroke="#3f51b5" stroke-width="8" fill="#3f51b5"></polygon><text font-family="Inconsolata" font-size="20pt" font-weight="bold" fill="#ffffff" transform="translate(143 351) matrix(0.707 -0.409 0.707 0.409 0 0)" text-anchor="end">eks-np-dev-vpc-pri...</text><g transform="translate(160 324) matrix(0.707 0.409 -0.707 0.409 0 0)"><svg width="21" height="32" style="fill: rgb(255, 255, 255);"><svg xmlns="http://www.w3.org/2000/svg" width="21" height="32" viewBox="0 0 21 32"><path d="M5.714 13.714h9.143v-3.429c0-2.518-2.054-4.571-4.571-4.571s-4.571 2.054-4.571 4.571v3.429zm14.857 1.715v10.286c0 .946-.768 1.714-1.714 1.714H1.714A1.715 1.715 0 0 1 0 25.715V15.429c0-.946.768-1.714 1.714-1.714h.571v-3.429c0-4.393 3.607-8 8-8s8 3.607 8 8v3.429h.571c.946 0 1.714.768 1.714 1.714z"></path></svg></svg></g></g></g></g></g><g opacity="1"><g id="subnet-09183a3ae8134b7cd"><g><g><polygon transform="matrix(-0.707 -0.409 0.707 -0.409 0 0)" points="-1918.4445 -633.15, -1918.4445 -248.7375, -271.35 -248.7375, -271.35 -633.15" stroke-width="11.2" stroke="#f44336" stroke-dasharray="16" fill="none"></polygon></g><g><polygon points="16 213, -16 194, -224 315, -224 352" stroke="#f44336" stroke-width="8" fill="#f44336"></polygon><text font-family="Inconsolata" font-size="20pt" font-weight="bold" fill="#ffffff" transform="translate(-33 231) matrix(0.707 -0.409 0.707 0.409 0 0)" text-anchor="end">eks-np-dev-vpc...</text><g transform="translate(-16 204) matrix(0.707 0.409 -0.707 0.409 0 0)"><svg width="21" height="32" style="fill: rgb(255, 255, 255);"><svg xmlns="http://www.w3.org/2000/svg" width="21" height="32" viewBox="0 0 21 32"><path d="M5.714 13.714h9.143v-3.429c0-2.518-2.054-4.571-4.571-4.571s-4.571 2.054-4.571 4.571v3.429zm14.857 1.715v10.286c0 .946-.768 1.714-1.714 1.714H1.714A1.715 1.715 0 0 1 0 25.715V15.429c0-.946.768-1.714 1.714-1.714h.571v-3.429c0-4.393 3.607-8 8-8s8 3.607 8 8v3.429h.571c.946 0 1.714.768 1.714 1.714z"></path></svg></svg></g></g></g></g></g></g><g pointer-events="auto"><g opacity="1"><g id="e6a8aa48-bfbe-4d29-a6f0-f612c3b7bc4a"><g><polygon points="2304 1721, 2560 1869, 2368 1980, 2112 1832" fill="#000000" opacity="0.5"></polygon><polygon points="2304 1702, 2560 1850, 2368 1961, 2112 1813" fill="#fff"></polygon><polygon points="2112 1822, 2368 1970, 2368 1961, 2112 1813" fill="#512e90" stroke="#999"></polygon><polygon points="2368 1970, 2560 1859, 2560 1850, 2368 1961" fill="#3b216a" stroke="#999"></polygon><polygon points="2304 1702, 2112 1813, 2112 1822, 2368 1970, 2560 1859, 2560 1850" fill="none" stroke="#000000" stroke-width="2"></polygon><clipPath id="clip-e6a8aa48-bfbe-4d29-a6f0-f612c3b7bc4a"><rect x="3708.4500000000003" y="452.25000000000006" width="352.755" height="271.35"></rect></clipPath><text font-family="Open Sans" font-size="25pt" fill="#000000" font-weight="bold" x="3717.4950000000003" y="488.43000000000006" stroke="#ffffff" stroke-width="4" transform="matrix(0.707 0.409 -0.707 0.409 0 0)" clip-path="url(#clip-e6a8aa48-bfbe-4d29-a6f0-f612c3b7bc4a)"><tspan>skiapp-deployment</tspan></text><text font-family="Open Sans" font-size="25pt" fill="#000000" font-weight="bold" x="3717.4950000000003" y="488.43000000000006" transform="matrix(0.707 0.409 -0.707 0.409 0 0)" clip-path="url(#clip-e6a8aa48-bfbe-4d29-a6f0-f612c3b7bc4a)"><tspan>skiapp-deployment</tspan></text></g></g></g><g opacity="1"><g id="0d35afdd-2af2-434a-a2c1-91d086e6be67"><g><polygon points="1408 1203, 1664 1351, 1472 1462, 1216 1314" fill="#000000" opacity="0.5"></polygon><polygon points="1408 1184, 1664 1332, 1472 1443, 1216 1295" fill="#fff"></polygon><polygon points="1216 1304, 1472 1452, 1472 1443, 1216 1295" fill="#0286c2" stroke="#999"></polygon><polygon points="1472 1452, 1664 1341, 1664 1332, 1472 1443" fill="#02638f" stroke="#999"></polygon><polygon points="1408 1184, 1216 1295, 1216 1304, 1472 1452, 1664 1341, 1664 1332" fill="none" stroke="#000000" stroke-width="2"></polygon><clipPath id="clip-0d35afdd-2af2-434a-a2c1-91d086e6be67"><rect x="2442.15" y="452.25000000000006" width="352.755" height="271.35"></rect></clipPath><text font-family="Open Sans" font-size="25pt" fill="#000000" font-weight="bold" x="2451.195" y="488.43000000000006" stroke="#ffffff" stroke-width="4" transform="matrix(0.707 0.409 -0.707 0.409 0 0)" clip-path="url(#clip-0d35afdd-2af2-434a-a2c1-91d086e6be67)"><tspan>aws-load-balancer-controller</tspan></text><text font-family="Open Sans" font-size="25pt" fill="#000000" font-weight="bold" x="2451.195" y="488.43000000000006" transform="matrix(0.707 0.409 -0.707 0.409 0 0)" clip-path="url(#clip-0d35afdd-2af2-434a-a2c1-91d086e6be67)"><tspan>aws-load-balancer-controller</tspan></text></g></g></g><g opacity="1"><g id="7f31452c-accd-4eef-9679-10cf5660f5e4"><g><polygon points="2624 1906, 2816 2017, 2624 2128, 2432 2017" fill="#000000" opacity="0.5"></polygon><polygon points="2624 1887, 2816 1998, 2624 2109, 2432 1998" fill="#fff"></polygon><polygon points="2432 2007, 2624 2118, 2624 2109, 2432 1998" fill="#0286c2" stroke="#999"></polygon><polygon points="2624 2118, 2816 2007, 2816 1998, 2624 2109" fill="#02638f" stroke="#999"></polygon><polygon points="2624 1887, 2432 1998, 2432 2007, 2624 2118, 2816 2007, 2816 1998" fill="none" stroke="#000000" stroke-width="2"></polygon><clipPath id="clip-7f31452c-accd-4eef-9679-10cf5660f5e4"><rect x="4160.7" y="452.25000000000006" width="262.305" height="271.35"></rect></clipPath><text font-family="Open Sans" font-size="25pt" fill="#000000" font-weight="bold" x="4169.745" y="488.43000000000006" stroke="#ffffff" stroke-width="4" transform="matrix(0.707 0.409 -0.707 0.409 0 0)" clip-path="url(#clip-7f31452c-accd-4eef-9679-10cf5660f5e4)"><tspan>argo-cd-argocd-application-controller</tspan></text><text font-family="Open Sans" font-size="25pt" fill="#000000" font-weight="bold" x="4169.745" y="488.43000000000006" transform="matrix(0.707 0.409 -0.707 0.409 0 0)" clip-path="url(#clip-7f31452c-accd-4eef-9679-10cf5660f5e4)"><tspan>argo-cd-argocd-application-controller</tspan></text></g></g></g><g opacity="1"><g id="38c0045c-7f10-42a9-8b3e-75a0a7e28ccc"><g><polygon points="2880 2054, 3136 2202, 2880 2350, 2624 2202" fill="#000000" opacity="0.5"></polygon><polygon points="2880 2035, 3136 2183, 2880 2331, 2624 2183" fill="#fff"></polygon><polygon points="2624 2192, 2880 2340, 2880 2331, 2624 2183" fill="#32408f" stroke="#999"></polygon><polygon points="2880 2340, 3136 2192, 3136 2183, 2880 2331" fill="#252f69" stroke="#999"></polygon><polygon points="2880 2035, 2624 2183, 2624 2192, 2880 2340, 3136 2192, 3136 2183" fill="none" stroke="#000000" stroke-width="2"></polygon><clipPath id="clip-38c0045c-7f10-42a9-8b3e-75a0a7e28ccc"><rect x="4522.5" y="452.25000000000006" width="352.755" height="361.8"></rect></clipPath><text font-family="Open Sans" font-size="25pt" fill="#000000" font-weight="bold" x="4531.545" y="488.43000000000006" stroke="#ffffff" stroke-width="4" transform="matrix(0.707 0.409 -0.707 0.409 0 0)" clip-path="url(#clip-38c0045c-7f10-42a9-8b3e-75a0a7e28ccc)"><tspan>argo-cd-redis-ha-server</tspan></text><text font-family="Open Sans" font-size="25pt" fill="#000000" font-weight="bold" x="4531.545" y="488.43000000000006" transform="matrix(0.707 0.409 -0.707 0.409 0 0)" clip-path="url(#clip-38c0045c-7f10-42a9-8b3e-75a0a7e28ccc)"><tspan>argo-cd-redis-ha-server</tspan></text></g></g></g><g opacity="1"><g id="9f87f0f5-8a00-4ce1-b0c7-281a78788756"><g><polygon points="448 648, 704 796, 512 907, 256 759" fill="#000000" opacity="0.5"></polygon><polygon points="448 629, 704 777, 512 888, 256 740" fill="#fff"></polygon><polygon points="256 749, 512 897, 512 888, 256 740" fill="#0c7cd5" stroke="#999"></polygon><polygon points="512 897, 704 786, 704 777, 512 888" fill="#0960a5" stroke="#999"></polygon><polygon points="448 629, 256 740, 256 749, 512 897, 704 786, 704 777" fill="none" stroke="#000000" stroke-width="2"></polygon><clipPath id="clip-9f87f0f5-8a00-4ce1-b0c7-281a78788756"><rect x="1085.3999999999999" y="452.25000000000006" width="352.755" height="271.35"></rect></clipPath><text font-family="Open Sans" font-size="25pt" fill="#000000" font-weight="bold" x="1094.445" y="488.43000000000006" stroke="#ffffff" stroke-width="4" transform="matrix(0.707 0.409 -0.707 0.409 0 0)" clip-path="url(#clip-9f87f0f5-8a00-4ce1-b0c7-281a78788756)"><tspan>argo-cd-argocd-repo-server</tspan></text><text font-family="Open Sans" font-size="25pt" fill="#000000" font-weight="bold" x="1094.445" y="488.43000000000006" transform="matrix(0.707 0.409 -0.707 0.409 0 0)" clip-path="url(#clip-9f87f0f5-8a00-4ce1-b0c7-281a78788756)"><tspan>argo-cd-argocd-repo-server</tspan></text></g></g></g><g opacity="1"><g id="13f42d4a-c21f-472c-aaee-7f59423c4abc"><g><polygon points="3200 2239, 3456 2387, 3200 2535, 2944 2387" fill="#000000" opacity="0.5"></polygon><polygon points="3200 2220, 3456 2368, 3200 2516, 2944 2368" fill="#fff"></polygon><polygon points="2944 2377, 3200 2525, 3200 2516, 2944 2368" fill="#771e86" stroke="#999"></polygon><polygon points="3200 2525, 3456 2377, 3456 2368, 3200 2516" fill="#52145d" stroke="#999"></polygon><polygon points="3200 2220, 2944 2368, 2944 2377, 3200 2525, 3456 2377, 3456 2368" fill="none" stroke="#000000" stroke-width="2"></polygon><clipPath id="clip-13f42d4a-c21f-472c-aaee-7f59423c4abc"><rect x="4974.75" y="452.25000000000006" width="352.755" height="361.8"></rect></clipPath><text font-family="Open Sans" font-size="25pt" fill="#000000" font-weight="bold" x="4983.795" y="488.43000000000006" stroke="#ffffff" stroke-width="4" transform="matrix(0.707 0.409 -0.707 0.409 0 0)" clip-path="url(#clip-13f42d4a-c21f-472c-aaee-7f59423c4abc)"><tspan>aws-node</tspan></text><text font-family="Open Sans" font-size="25pt" fill="#000000" font-weight="bold" x="4983.795" y="488.43000000000006" transform="matrix(0.707 0.409 -0.707 0.409 0 0)" clip-path="url(#clip-13f42d4a-c21f-472c-aaee-7f59423c4abc)"><tspan>aws-node</tspan></text></g></g></g><g opacity="1"><g id="b2ed0516-ee59-4d8b-b59f-925f21ca17f9"><g><polygon points="768 833, 1024 981, 832 1092, 576 944" fill="#000000" opacity="0.5"></polygon><polygon points="768 814, 1024 962, 832 1073, 576 925" fill="#fff"></polygon><polygon points="576 934, 832 1082, 832 1073, 576 925" fill="#512e90" stroke="#999"></polygon><polygon points="832 1082, 1024 971, 1024 962, 832 1073" fill="#3b216a" stroke="#999"></polygon><polygon points="768 814, 576 925, 576 934, 832 1082, 1024 971, 1024 962" fill="none" stroke="#000000" stroke-width="2"></polygon><clipPath id="clip-b2ed0516-ee59-4d8b-b59f-925f21ca17f9"><rect x="1537.65" y="452.25000000000006" width="352.755" height="271.35"></rect></clipPath><text font-family="Open Sans" font-size="25pt" fill="#000000" font-weight="bold" x="1546.6950000000002" y="488.43000000000006" stroke="#ffffff" stroke-width="4" transform="matrix(0.707 0.409 -0.707 0.409 0 0)" clip-path="url(#clip-b2ed0516-ee59-4d8b-b59f-925f21ca17f9)"><tspan>argo-cd-argocd-server</tspan></text><text font-family="Open Sans" font-size="25pt" fill="#000000" font-weight="bold" x="1546.6950000000002" y="488.43000000000006" transform="matrix(0.707 0.409 -0.707 0.409 0 0)" clip-path="url(#clip-b2ed0516-ee59-4d8b-b59f-925f21ca17f9)"><tspan>argo-cd-argocd-server</tspan></text></g></g></g><g opacity="1"><g id="72621b95-597f-4098-a933-e29d1ea25ed4"><g><polygon points="3520 2424, 3776 2572, 3520 2720, 3264 2572" fill="#000000" opacity="0.5"></polygon><polygon points="3520 2405, 3776 2553, 3520 2701, 3264 2553" fill="#fff"></polygon><polygon points="3264 2562, 3520 2710, 3520 2701, 3264 2553" fill="#cc7a00" stroke="#999"></polygon><polygon points="3520 2710, 3776 2562, 3776 2553, 3520 2701" fill="#995b00" stroke="#999"></polygon><polygon points="3520 2405, 3264 2553, 3264 2562, 3520 2710, 3776 2562, 3776 2553" fill="none" stroke="#000000" stroke-width="2"></polygon><clipPath id="clip-72621b95-597f-4098-a933-e29d1ea25ed4"><rect x="5427" y="452.25000000000006" width="352.755" height="361.8"></rect></clipPath><text font-family="Open Sans" font-size="25pt" fill="#000000" font-weight="bold" x="5436.045" y="488.43000000000006" stroke="#ffffff" stroke-width="4" transform="matrix(0.707 0.409 -0.707 0.409 0 0)" clip-path="url(#clip-72621b95-597f-4098-a933-e29d1ea25ed4)"><tspan>kube-proxy</tspan></text><text font-family="Open Sans" font-size="25pt" fill="#000000" font-weight="bold" x="5436.045" y="488.43000000000006" transform="matrix(0.707 0.409 -0.707 0.409 0 0)" clip-path="url(#clip-72621b95-597f-4098-a933-e29d1ea25ed4)"><tspan>kube-proxy</tspan></text></g></g></g><g opacity="1"><g id="8dc1b24e-333f-456e-a94d-e1cfcd0ef56f"><g><polygon points="1088 1018, 1344 1166, 1088 1314, 832 1166" fill="#000000" opacity="0.5"></polygon><polygon points="1088 999, 1344 1147, 1088 1295, 832 1147" fill="#fff"></polygon><polygon points="832 1156, 1088 1304, 1088 1295, 832 1147" fill="#71a436" stroke="#999"></polygon><polygon points="1088 1304, 1344 1156, 1344 1147, 1088 1295" fill="#577d2a" stroke="#999"></polygon><polygon points="1088 999, 832 1147, 832 1156, 1088 1304, 1344 1156, 1344 1147" fill="none" stroke="#000000" stroke-width="2"></polygon><clipPath id="clip-8dc1b24e-333f-456e-a94d-e1cfcd0ef56f"><rect x="1989.9" y="452.25000000000006" width="352.755" height="361.8"></rect></clipPath><text font-family="Open Sans" font-size="25pt" fill="#000000" font-weight="bold" x="1998.9450000000002" y="488.43000000000006" stroke="#ffffff" stroke-width="4" transform="matrix(0.707 0.409 -0.707 0.409 0 0)" clip-path="url(#clip-8dc1b24e-333f-456e-a94d-e1cfcd0ef56f)"><tspan>argo-cd-redis-ha-haproxy</tspan></text><text font-family="Open Sans" font-size="25pt" fill="#000000" font-weight="bold" x="1998.9450000000002" y="488.43000000000006" transform="matrix(0.707 0.409 -0.707 0.409 0 0)" clip-path="url(#clip-8dc1b24e-333f-456e-a94d-e1cfcd0ef56f)"><tspan>argo-cd-redis-ha-haproxy</tspan></text></g></g></g><g opacity="1"><g id="1fd0028f-06b9-4cc4-9fa2-0f65cbc21af3"><g><polygon points="192 500, 384 611, 192 722, 0 611" fill="#000000" opacity="0.5"></polygon><polygon points="192 481, 384 592, 192 703, 0 592" fill="#fff"></polygon><polygon points="0 601, 192 712, 192 703, 0 592" fill="#771e86" stroke="#999"></polygon><polygon points="192 712, 384 601, 384 592, 192 703" fill="#52145d" stroke="#999"></polygon><polygon points="192 481, 0 592, 0 601, 192 712, 384 601, 384 592" fill="none" stroke="#000000" stroke-width="2"></polygon><clipPath id="clip-1fd0028f-06b9-4cc4-9fa2-0f65cbc21af3"><rect x="723.6" y="452.25000000000006" width="262.305" height="271.35"></rect></clipPath><text font-family="Open Sans" font-size="25pt" fill="#000000" font-weight="bold" x="732.645" y="488.43000000000006" stroke="#ffffff" stroke-width="4" transform="matrix(0.707 0.409 -0.707 0.409 0 0)" clip-path="url(#clip-1fd0028f-06b9-4cc4-9fa2-0f65cbc21af3)"><tspan>argo-cd-argocd-dex-server</tspan></text><text font-family="Open Sans" font-size="25pt" fill="#000000" font-weight="bold" x="732.645" y="488.43000000000006" transform="matrix(0.707 0.409 -0.707 0.409 0 0)" clip-path="url(#clip-1fd0028f-06b9-4cc4-9fa2-0f65cbc21af3)"><tspan>argo-cd-argocd-dex-server</tspan></text></g></g></g><g opacity="1"><g id="187e2c33-d19f-43c0-97da-bfc27ada4226"><g><polygon points="2048 1573, 2240 1684, 2048 1795, 1856 1684" fill="#000000" opacity="0.5"></polygon><polygon points="2048 1554, 2240 1665, 2048 1776, 1856 1665" fill="#fff"></polygon><polygon points="1856 1674, 2048 1785, 2048 1776, 1856 1665" fill="#0c7cd5" stroke="#999"></polygon><polygon points="2048 1785, 2240 1674, 2240 1665, 2048 1776" fill="#0960a5" stroke="#999"></polygon><polygon points="2048 1554, 1856 1665, 1856 1674, 2048 1785, 2240 1674, 2240 1665" fill="none" stroke="#000000" stroke-width="2"></polygon><clipPath id="clip-187e2c33-d19f-43c0-97da-bfc27ada4226"><rect x="3346.65" y="452.25000000000006" width="262.305" height="271.35"></rect></clipPath><text font-family="Open Sans" font-size="25pt" fill="#000000" font-weight="bold" x="3355.695" y="488.43000000000006" stroke="#ffffff" stroke-width="4" transform="matrix(0.707 0.409 -0.707 0.409 0 0)" clip-path="url(#clip-187e2c33-d19f-43c0-97da-bfc27ada4226)"><tspan>nginx</tspan></text><text font-family="Open Sans" font-size="25pt" fill="#000000" font-weight="bold" x="3355.695" y="488.43000000000006" transform="matrix(0.707 0.409 -0.707 0.409 0 0)" clip-path="url(#clip-187e2c33-d19f-43c0-97da-bfc27ada4226)"><tspan>nginx</tspan></text></g></g></g><g opacity="1"><g id="529d58d2-f676-4946-9965-9e0fa000a625"><g><polygon points="1728 1388, 1984 1536, 1792 1647, 1536 1499" fill="#000000" opacity="0.5"></polygon><polygon points="1728 1369, 1984 1517, 1792 1628, 1536 1480" fill="#fff"></polygon><polygon points="1536 1489, 1792 1637, 1792 1628, 1536 1480" fill="#512e90" stroke="#999"></polygon><polygon points="1792 1637, 1984 1526, 1984 1517, 1792 1628" fill="#3b216a" stroke="#999"></polygon><polygon points="1728 1369, 1536 1480, 1536 1489, 1792 1637, 1984 1526, 1984 1517" fill="none" stroke="#000000" stroke-width="2"></polygon><clipPath id="clip-529d58d2-f676-4946-9965-9e0fa000a625"><rect x="2894.4" y="452.25000000000006" width="352.755" height="271.35"></rect></clipPath><text font-family="Open Sans" font-size="25pt" fill="#000000" font-weight="bold" x="2903.445" y="488.43000000000006" stroke="#ffffff" stroke-width="4" transform="matrix(0.707 0.409 -0.707 0.409 0 0)" clip-path="url(#clip-529d58d2-f676-4946-9965-9e0fa000a625)"><tspan>coredns</tspan></text><text font-family="Open Sans" font-size="25pt" fill="#000000" font-weight="bold" x="2903.445" y="488.43000000000006" transform="matrix(0.707 0.409 -0.707 0.409 0 0)" clip-path="url(#clip-529d58d2-f676-4946-9965-9e0fa000a625)"><tspan>coredns</tspan></text></g></g></g></g><g pointer-events="none"></g><g pointer-events="auto"><g id="082f9c09-a027-4e8b-8f98-b20198ac276a-7b48b808-1b3b-4243-b5a1-d35462079d1d"><g cursor="cell"><line x1="-168" y1="467" x2="-42" y2="394" stroke="red" stroke-width="8" opacity="0"></line><line x1="-168" y1="467" x2="-42" y2="394" stroke="#000000" stroke-width="2" stroke-linecap="round"></line><polygon points="-32 389, -58 394, -44 396, -41 403, -32 389" stroke-linejoin="round" fill="#000000" stroke="#000000" stroke-width="1"></polygon></g></g></g><g pointer-events="auto"><g opacity="1"><g id="7b48b808-1b3b-4243-b5a1-d35462079d1d" transform="translate(0 0)"><svg x="-48" y="305" height="94" width="97" fill-rule="evenodd" stroke-miterlimit="1" xml:space="preserve"><path d="M0 18.6v18.6l32.333 18.6h32.334L97 37.2V18.6L64.667 0H32.333L0 18.6Z" fill="#ececed"></path><path d="M64.667 55.8 97 37.2v37.2L64.667 93V55.8Z" fill="#b8b8bb"></path><path d="M32.333 55.8h32.334V93H32.333V55.8ZM0 37.2v37.2L32.333 93V55.8L0 37.2Z" fill="#d2d2d4"></path><path d="M.955 37.877 32.333 55.8h32.334l31.378-17.923M32.333 55.8v36.211M64.667 55.8v36.574" fill="none" stroke="#83838a" stroke-width="1.04"></path><path d="M97 18.6v55.8L64.667 93H32.333L0 74.4V18.6L32.333 0h32.334L97 18.6ZM32.865 1.989 1.989 19.751v53.498l30.876 17.762h31.27l30.876-17.762V19.751L64.135 1.989h-31.27Z" fill="#000000"></path><path d="M69.912 15.583c11.818 6.798 11.818 17.836 0 24.635-11.817 6.798-31.007 6.798-42.824 0-11.818-6.799-11.818-17.837 0-24.635 11.817-6.799 31.007-6.799 42.824 0Z" fill="#4286c5"></path><path d="M49.584 14.774c1.824 1.049 1.824 2.753 0 3.802-1.824 1.05-4.786 1.05-6.61 0-1.824-1.049-1.824-2.753 0-3.802 1.824-1.05 4.786-1.05 6.61 0Zm10.867 6.251c1.825 1.049 1.825 2.753 0 3.803-1.824 1.049-4.786 1.049-6.61 0-1.824-1.05-1.824-2.754 0-3.803s4.786-1.049 6.61 0Zm10.868 6.251c1.824 1.05 1.824 2.754 0 3.803-1.825 1.049-4.787 1.049-6.611 0-1.824-1.049-1.824-2.753 0-3.803 1.824-1.049 4.786-1.049 6.611 0Zm-32.822 6.378c1.824 1.05 1.824 2.754 0 3.803-1.825 1.05-4.787 1.05-6.611 0-1.824-1.049-1.824-2.753 0-3.803 1.824-1.049 4.786-1.049 6.611 0Z" fill="#ffffff"></path><path d="M47.458 15.878c.453.26.393.717-.133 1.02-.526.303-1.32.337-1.773.076-.452-.26-.392-.717.133-1.019.526-.303 1.321-.337 1.773-.077Z" fill="#ffffff"></path><path d="M48.111 15.621c1.012.582 1.012 1.526 0 2.108-1.011.582-2.653.582-3.664 0-1.012-.582-1.012-1.526 0-2.108 1.011-.582 2.653-.582 3.664 0Zm10.867 6.251c1.012.582 1.012 1.527 0 2.108-1.011.582-2.653.582-3.664 0-1.012-.581-1.012-1.526 0-2.108 1.011-.581 2.653-.581 3.664 0Zm10.868 6.252c1.011.581 1.011 1.526 0 2.108-1.012.582-2.654.582-3.665 0-1.011-.582-1.011-1.527 0-2.108 1.011-.582 2.653-.582 3.665 0Z" fill="#4286c5"></path><path d="M37.024 34.502c1.011.582 1.011 1.526 0 2.108-1.012.582-2.654.582-3.665 0-1.011-.582-1.011-1.526 0-2.108 1.011-.582 2.653-.582 3.665 0Zm15.277-9.33L37.719 33.56l.482.834 14.584-8.388-.484-.834Z" fill="#ffffff"></path><path d="m46.993 26.089 6.654-1.146-4.324 5.168c.189-1.691-.757-3.313-2.33-4.022Z" fill="#ffffff" stroke="#ffffff" stroke-width=".36"></path><path d="m43.488 19.937-6.057 13.797.886.387 6.056-13.798-.885-.386Z" fill="#ffffff"></path><path d="m39.76 23.812 4.676-4.854-.405 6.716c-.855-1.474-2.582-2.221-4.271-1.862Z" fill="#ffffff" stroke="#ffffff" stroke-width=".36"></path><path d="m61.953 30.061-23.985 3.483.14.955 23.985-3.486-.14-.952Z" fill="#ffffff"></path><path d="m56.68 28.957 6.608 1.387-5.936 3.209c.804-1.503.526-3.358-.672-4.596Z" fill="#ffffff" stroke="#ffffff" stroke-width=".36"></path><path d="m37.96 33.977 13.12-7.547m-13.207 7.497 5.792-13.134m-5.628 13.229 22.478-3.281" fill="#ffffff" stroke="#ffffff" stroke-width="1.93"></path></svg></g></g><g opacity="1"><g id="e578a3af-3792-476a-8678-bd8690bd2997" transform="translate(0 0)"><svg x="578" y="668" height="108.05" width="123" viewBox="0 0 32.544 28.588"><path d="M10.115 6.02v14.218l7.873-4.317V1.475z" fill="#b8b8bb" fill-rule="evenodd" stroke="#83838a" stroke-linejoin="round" stroke-width=".268"></path><path d="m.265 2.228 9.85 3.792v14.218l-9.85-8.53z" fill="#d2d2d4" fill-rule="evenodd" stroke="#83838a" stroke-linejoin="round" stroke-width=".265"></path><path d="m10.115 6.02 7.873-4.545L3.548.332.265 2.228z" fill="#ececed" fill-rule="evenodd" stroke="#83838a" stroke-linejoin="round" stroke-width=".265"></path><path d="m.265 11.707 9.85 8.531 7.873-4.317V1.475L3.392.271.265 2.077z" fill="none" stroke="#000000" stroke-width=".529"></path><path d="m22.429 3.65-8.208 4.74 14.827 10.397 3.231-1.865z" fill="#ececed" fill-rule="evenodd" stroke="#83838a" stroke-width=".268"></path><path d="M14.22 8.391v14.218l14.777 5.687.051-9.509z" fill="#d2d2d4" fill-rule="evenodd" stroke="#83838a" stroke-width=".265"></path><path d="m29.048 18.787 3.231-1.865V26.4l-3.282 1.897z" fill="#b8b8bb" fill-rule="evenodd" stroke="#83838a" stroke-width=".265"></path><path d="m22.429 3.65-8.208 4.74v14.22l14.776 5.686 3.282-1.896v-9.478z" fill="none" stroke="#000000" stroke-width=".529"></path><path d="M25.604 20.872c-.071-.975-.928-2.116-1.982-2.598a2.547 2.547 0 0 0-.398-.145c-.566-.909-1.446-1.739-2.441-2.194-1.501-.688-2.76-.294-3.057.871-1.061-.091-1.77.532-1.77 1.598 0 1.436 1.271 3.18 2.84 3.898l5.961 2.73c1.411.645 2.555.121 2.555-1.17 0-1.004-.695-2.2-1.708-2.99zm-.847 3.38-5.961-2.73c-1.099-.502-1.988-1.723-1.988-2.728 0-.917.74-1.337 1.704-1.022v-.018c0-1.149 1.016-1.614 2.27-1.04.95.435 1.763 1.34 2.102 2.252.198-.065.456-.042.738.087.626.287 1.135.986 1.135 1.56a.657.657 0 0 1-.156.455c.052.018.105.041.156.065.94.43 1.704 1.478 1.704 2.339 0 .86-.763 1.21-1.704.78z" fill="#4286c5"></path></svg></g></g><g opacity="1"><g id="fc38ad24-2a62-4946-a0dd-68a6f5b9fbff" transform="translate(0 0)"><svg x="824" y="810" height="108.05" width="123" viewBox="0 0 32.544 28.588"><path d="M10.115 6.02v14.218l7.873-4.317V1.475z" fill="#b8b8bb" fill-rule="evenodd" stroke="#83838a" stroke-linejoin="round" stroke-width=".268"></path><path d="m.265 2.228 9.85 3.792v14.218l-9.85-8.53z" fill="#d2d2d4" fill-rule="evenodd" stroke="#83838a" stroke-linejoin="round" stroke-width=".265"></path><path d="m10.115 6.02 7.873-4.545L3.548.332.265 2.228z" fill="#ececed" fill-rule="evenodd" stroke="#83838a" stroke-linejoin="round" stroke-width=".265"></path><path d="m.265 11.707 9.85 8.531 7.873-4.317V1.475L3.392.271.265 2.077z" fill="none" stroke="#000000" stroke-width=".529"></path><path d="m22.429 3.65-8.208 4.74 14.827 10.397 3.231-1.865z" fill="#ececed" fill-rule="evenodd" stroke="#83838a" stroke-width=".268"></path><path d="M14.22 8.391v14.218l14.777 5.687.051-9.509z" fill="#d2d2d4" fill-rule="evenodd" stroke="#83838a" stroke-width=".265"></path><path d="m29.048 18.787 3.231-1.865V26.4l-3.282 1.897z" fill="#b8b8bb" fill-rule="evenodd" stroke="#83838a" stroke-width=".265"></path><path d="m22.429 3.65-8.208 4.74v14.22l14.776 5.686 3.282-1.896v-9.478z" fill="none" stroke="#000000" stroke-width=".529"></path><path d="m18.582 19.765-1.527-.59c-.28-.108-.508-.02-.508.197v1.178c0 .217.227.481.508.59l1.527.589c.28.108.509.02.509-.196v-1.18c0-.216-.228-.48-.51-.588zm-.382-1.13 3.053 1.179v.59l.763.294v-.59l3.053 1.179v.59l.763.294v-.707c0-.26-.274-.577-.61-.707l-3.206-1.238v-.786l.636.246c.281.108.509.02.509-.197v-1.177c0-.217-.228-.481-.509-.59l-2.035-.785c-.28-.109-.509-.02-.509.196v1.179c0 .217.228.48.509.59l.636.245v.785l-3.205-1.237c-.337-.13-.61-.024-.61.236v.707l.762.294zm4.198 2.603-1.527-.59c-.28-.108-.508-.02-.508.197v1.179c0 .217.227.48.508.589l1.527.59c.28.108.509.02.509-.197v-1.179c0-.217-.228-.48-.51-.59zm3.816 1.473-1.527-.59c-.28-.108-.508-.02-.508.197v1.179c0 .217.227.48.508.59l1.527.589c.28.108.509.02.509-.197v-1.178c0-.217-.228-.481-.51-.59z" fill="#4286c5"></path></svg></g></g><g opacity="1"><g id="000e97c7-04fa-4685-9bce-9298c771dc9a" transform="translate(0 0)"><svg x="139" y="542" height="80.616" width="106.128" viewBox="0 0 28.08 21.33"><path d="M.265 10.053v4.894l10.596 6.118v-4.894zm10.596 6.118h6.358v4.894h-6.358z" fill="#232323" stroke="#000" stroke-width=".265"></path><path d="m17.219 21.065 10.596-6.118v-4.894l-10.596 6.118z" fill="#090909" stroke="#000" stroke-width=".265"></path><path d="M27.815 10.053v-3.67L17.219.265h-6.358L.264 6.382v3.671l10.597 6.118h6.358z" fill="#3c3c3c" stroke="#000" stroke-width=".265"></path><path d="m.265 14.947 10.596 6.118h6.358l10.596-6.118V6.383L17.219.265h-6.358L.264 6.383Z" fill="none" stroke="#000000" stroke-width=".529"></path><path class="cls-2" d="m11.499 8.439 3.05-1.761.406.235-1.389.802 2.71-.04.537.31-2.862.062-.067 1.769-.555-.32V7.852l-1.424.822z" fill="#ff9800"></path><g fill="#ff9800"><path class="cls-1" d="m11.211 2.617.666.385-6.87 3.967-.667-.385zm1.872 1.081.666.385-6.871 3.966-.666-.384zm8.12 4.688.666.384-6.871 3.967-.666-.385zm1.871 1.08.666.385-6.87 3.967-.667-.385zM13.48 10.8 9.57 8.543a.796.46 0 0 1 0-.65l3.91-2.258a.796.46 0 0 1 1.126 0l3.91 2.258a.796.46 0 0 1 0 .65l-3.91 2.257a.796.46 0 0 1-1.126 0zm-3.14-2.582 3.703 2.138 3.704-2.138-3.704-2.139z"></path><path class="cls-1" d="m14.958 5.142.666.385-.936.54-.666-.385zm1.249.721.666.385-.936.54-.666-.385zm1.249.721.666.385-.936.54-.666-.385zm1.249.721.666.385-.936.54-.666-.385zm-9.053.9.667.385-.936.54-.667-.385zm1.25.721.665.385-.935.54-.667-.385zm1.248.721.666.385-.936.54-.666-.385zm1.25.721.665.385-.936.54-.666-.385z"></path><path class="cls-1" d="m13.126 5.142.936.54-.666.385-.936-.54zm-1.249.721.936.54-.666.385-.936-.54zm-1.249.721.936.54-.666.385-.936-.54zm-1.249.721.936.54-.666.385-.936-.54zm9.053.9.935.54-.666.385-.936-.54zm-1.25.721.936.54-.666.385-.936-.54zm-1.248.721.936.54-.667.385-.936-.54zm-1.25.721.937.54-.667.385-.935-.54z"></path></g></svg></g></g><g opacity="1"><g id="f78392da-8316-456a-b664-14e3603c4464" transform="translate(0 0)"><svg x="395" y="690" height="80.616" width="106.128" viewBox="0 0 28.08 21.33"><path d="M.265 10.053v4.894l10.596 6.118v-4.894zm10.596 6.118h6.358v4.894h-6.358z" fill="#232323" stroke="#000" stroke-width=".265"></path><path d="m17.219 21.065 10.596-6.118v-4.894l-10.596 6.118z" fill="#090909" stroke="#000" stroke-width=".265"></path><path d="M27.815 10.053v-3.67L17.219.265h-6.358L.264 6.382v3.671l10.597 6.118h6.358z" fill="#3c3c3c" stroke="#000" stroke-width=".265"></path><path d="m.265 14.947 10.596 6.118h6.358l10.596-6.118V6.383L17.219.265h-6.358L.264 6.383Z" fill="none" stroke="#000000" stroke-width=".529"></path><path class="cls-2" d="m11.499 8.439 3.05-1.761.406.235-1.389.802 2.71-.04.537.31-2.862.062-.067 1.769-.555-.32V7.852l-1.424.822z" fill="#ff9800"></path><g fill="#ff9800"><path class="cls-1" d="m11.211 2.617.666.385-6.87 3.967-.667-.385zm1.872 1.081.666.385-6.871 3.966-.666-.384zm8.12 4.688.666.384-6.871 3.967-.666-.385zm1.871 1.08.666.385-6.87 3.967-.667-.385zM13.48 10.8 9.57 8.543a.796.46 0 0 1 0-.65l3.91-2.258a.796.46 0 0 1 1.126 0l3.91 2.258a.796.46 0 0 1 0 .65l-3.91 2.257a.796.46 0 0 1-1.126 0zm-3.14-2.582 3.703 2.138 3.704-2.138-3.704-2.139z"></path><path class="cls-1" d="m14.958 5.142.666.385-.936.54-.666-.385zm1.249.721.666.385-.936.54-.666-.385zm1.249.721.666.385-.936.54-.666-.385zm1.249.721.666.385-.936.54-.666-.385zm-9.053.9.667.385-.936.54-.667-.385zm1.25.721.665.385-.935.54-.667-.385zm1.248.721.666.385-.936.54-.666-.385zm1.25.721.665.385-.936.54-.666-.385z"></path><path class="cls-1" d="m13.126 5.142.936.54-.666.385-.936-.54zm-1.249.721.936.54-.666.385-.936-.54zm-1.249.721.936.54-.666.385-.936-.54zm-1.249.721.936.54-.666.385-.936-.54zm9.053.9.935.54-.666.385-.936-.54zm-1.25.721.936.54-.666.385-.936-.54zm-1.248.721.936.54-.667.385-.936-.54zm-1.25.721.937.54-.667.385-.935-.54z"></path></g></svg></g></g><g opacity="1"><g id="dcaeef75-3f0e-4ce7-9358-20874f86623e" transform="translate(0 0)"><svg x="459" y="727" height="80.616" width="106.128" viewBox="0 0 28.08 21.33"><path d="M.265 10.053v4.894l10.596 6.118v-4.894zm10.596 6.118h6.358v4.894h-6.358z" fill="#232323" stroke="#000" stroke-width=".265"></path><path d="m17.219 21.065 10.596-6.118v-4.894l-10.596 6.118z" fill="#090909" stroke="#000" stroke-width=".265"></path><path d="M27.815 10.053v-3.67L17.219.265h-6.358L.264 6.382v3.671l10.597 6.118h6.358z" fill="#3c3c3c" stroke="#000" stroke-width=".265"></path><path d="m.265 14.947 10.596 6.118h6.358l10.596-6.118V6.383L17.219.265h-6.358L.264 6.383Z" fill="none" stroke="#000000" stroke-width=".529"></path><path class="cls-2" d="m11.499 8.439 3.05-1.761.406.235-1.389.802 2.71-.04.537.31-2.862.062-.067 1.769-.555-.32V7.852l-1.424.822z" fill="#ff9800"></path><g fill="#ff9800"><path class="cls-1" d="m11.211 2.617.666.385-6.87 3.967-.667-.385zm1.872 1.081.666.385-6.871 3.966-.666-.384zm8.12 4.688.666.384-6.871 3.967-.666-.385zm1.871 1.08.666.385-6.87 3.967-.667-.385zM13.48 10.8 9.57 8.543a.796.46 0 0 1 0-.65l3.91-2.258a.796.46 0 0 1 1.126 0l3.91 2.258a.796.46 0 0 1 0 .65l-3.91 2.257a.796.46 0 0 1-1.126 0zm-3.14-2.582 3.703 2.138 3.704-2.138-3.704-2.139z"></path><path class="cls-1" d="m14.958 5.142.666.385-.936.54-.666-.385zm1.249.721.666.385-.936.54-.666-.385zm1.249.721.666.385-.936.54-.666-.385zm1.249.721.666.385-.936.54-.666-.385zm-9.053.9.667.385-.936.54-.667-.385zm1.25.721.665.385-.935.54-.667-.385zm1.248.721.666.385-.936.54-.666-.385zm1.25.721.665.385-.936.54-.666-.385z"></path><path class="cls-1" d="m13.126 5.142.936.54-.666.385-.936-.54zm-1.249.721.936.54-.666.385-.936-.54zm-1.249.721.936.54-.666.385-.936-.54zm-1.249.721.936.54-.666.385-.936-.54zm9.053.9.935.54-.666.385-.936-.54zm-1.25.721.936.54-.666.385-.936-.54zm-1.248.721.936.54-.667.385-.936-.54zm-1.25.721.937.54-.667.385-.935-.54z"></path></g></svg></g></g><g opacity="1"><g id="b6cc91c1-d53c-44af-b3cd-c439aa4d8438" transform="translate(0 0)"><svg x="715" y="875" height="80.616" width="106.128" viewBox="0 0 28.08 21.33"><path d="M.265 10.053v4.894l10.596 6.118v-4.894zm10.596 6.118h6.358v4.894h-6.358z" fill="#232323" stroke="#000" stroke-width=".265"></path><path d="m17.219 21.065 10.596-6.118v-4.894l-10.596 6.118z" fill="#090909" stroke="#000" stroke-width=".265"></path><path d="M27.815 10.053v-3.67L17.219.265h-6.358L.264 6.382v3.671l10.597 6.118h6.358z" fill="#3c3c3c" stroke="#000" stroke-width=".265"></path><path d="m.265 14.947 10.596 6.118h6.358l10.596-6.118V6.383L17.219.265h-6.358L.264 6.383Z" fill="none" stroke="#000000" stroke-width=".529"></path><path class="cls-2" d="m11.499 8.439 3.05-1.761.406.235-1.389.802 2.71-.04.537.31-2.862.062-.067 1.769-.555-.32V7.852l-1.424.822z" fill="#ff9800"></path><g fill="#ff9800"><path class="cls-1" d="m11.211 2.617.666.385-6.87 3.967-.667-.385zm1.872 1.081.666.385-6.871 3.966-.666-.384zm8.12 4.688.666.384-6.871 3.967-.666-.385zm1.871 1.08.666.385-6.87 3.967-.667-.385zM13.48 10.8 9.57 8.543a.796.46 0 0 1 0-.65l3.91-2.258a.796.46 0 0 1 1.126 0l3.91 2.258a.796.46 0 0 1 0 .65l-3.91 2.257a.796.46 0 0 1-1.126 0zm-3.14-2.582 3.703 2.138 3.704-2.138-3.704-2.139z"></path><path class="cls-1" d="m14.958 5.142.666.385-.936.54-.666-.385zm1.249.721.666.385-.936.54-.666-.385zm1.249.721.666.385-.936.54-.666-.385zm1.249.721.666.385-.936.54-.666-.385zm-9.053.9.667.385-.936.54-.667-.385zm1.25.721.665.385-.935.54-.667-.385zm1.248.721.666.385-.936.54-.666-.385zm1.25.721.665.385-.936.54-.666-.385z"></path><path class="cls-1" d="m13.126 5.142.936.54-.666.385-.936-.54zm-1.249.721.936.54-.666.385-.936-.54zm-1.249.721.936.54-.666.385-.936-.54zm-1.249.721.936.54-.666.385-.936-.54zm9.053.9.935.54-.666.385-.936-.54zm-1.25.721.936.54-.666.385-.936-.54zm-1.248.721.936.54-.667.385-.936-.54zm-1.25.721.937.54-.667.385-.935-.54z"></path></g></svg></g></g><g opacity="1"><g id="944ce736-e202-49c2-99d0-ca5c52ed08db" transform="translate(0 0)"><svg x="779" y="912" height="80.616" width="106.128" viewBox="0 0 28.08 21.33"><path d="M.265 10.053v4.894l10.596 6.118v-4.894zm10.596 6.118h6.358v4.894h-6.358z" fill="#232323" stroke="#000" stroke-width=".265"></path><path d="m17.219 21.065 10.596-6.118v-4.894l-10.596 6.118z" fill="#090909" stroke="#000" stroke-width=".265"></path><path d="M27.815 10.053v-3.67L17.219.265h-6.358L.264 6.382v3.671l10.597 6.118h6.358z" fill="#3c3c3c" stroke="#000" stroke-width=".265"></path><path d="m.265 14.947 10.596 6.118h6.358l10.596-6.118V6.383L17.219.265h-6.358L.264 6.383Z" fill="none" stroke="#000000" stroke-width=".529"></path><path class="cls-2" d="m11.499 8.439 3.05-1.761.406.235-1.389.802 2.71-.04.537.31-2.862.062-.067 1.769-.555-.32V7.852l-1.424.822z" fill="#ff9800"></path><g fill="#ff9800"><path class="cls-1" d="m11.211 2.617.666.385-6.87 3.967-.667-.385zm1.872 1.081.666.385-6.871 3.966-.666-.384zm8.12 4.688.666.384-6.871 3.967-.666-.385zm1.871 1.08.666.385-6.87 3.967-.667-.385zM13.48 10.8 9.57 8.543a.796.46 0 0 1 0-.65l3.91-2.258a.796.46 0 0 1 1.126 0l3.91 2.258a.796.46 0 0 1 0 .65l-3.91 2.257a.796.46 0 0 1-1.126 0zm-3.14-2.582 3.703 2.138 3.704-2.138-3.704-2.139z"></path><path class="cls-1" d="m14.958 5.142.666.385-.936.54-.666-.385zm1.249.721.666.385-.936.54-.666-.385zm1.249.721.666.385-.936.54-.666-.385zm1.249.721.666.385-.936.54-.666-.385zm-9.053.9.667.385-.936.54-.667-.385zm1.25.721.665.385-.935.54-.667-.385zm1.248.721.666.385-.936.54-.666-.385zm1.25.721.665.385-.936.54-.666-.385z"></path><path class="cls-1" d="m13.126 5.142.936.54-.666.385-.936-.54zm-1.249.721.936.54-.666.385-.936-.54zm-1.249.721.936.54-.666.385-.936-.54zm-1.249.721.936.54-.666.385-.936-.54zm9.053.9.935.54-.666.385-.936-.54zm-1.25.721.936.54-.666.385-.936-.54zm-1.248.721.936.54-.667.385-.936-.54zm-1.25.721.937.54-.667.385-.935-.54z"></path></g></svg></g></g><g opacity="1"><g id="717e2070-6605-42e0-b678-bad9e46af61f" transform="translate(0 0)"><svg x="1035" y="1060" height="80.616" width="106.128" viewBox="0 0 28.08 21.33"><path d="M.265 10.053v4.894l10.596 6.118v-4.894zm10.596 6.118h6.358v4.894h-6.358z" fill="#232323" stroke="#000" stroke-width=".265"></path><path d="m17.219 21.065 10.596-6.118v-4.894l-10.596 6.118z" fill="#090909" stroke="#000" stroke-width=".265"></path><path d="M27.815 10.053v-3.67L17.219.265h-6.358L.264 6.382v3.671l10.597 6.118h6.358z" fill="#3c3c3c" stroke="#000" stroke-width=".265"></path><path d="m.265 14.947 10.596 6.118h6.358l10.596-6.118V6.383L17.219.265h-6.358L.264 6.383Z" fill="none" stroke="#000000" stroke-width=".529"></path><path class="cls-2" d="m11.499 8.439 3.05-1.761.406.235-1.389.802 2.71-.04.537.31-2.862.062-.067 1.769-.555-.32V7.852l-1.424.822z" fill="#ff9800"></path><g fill="#ff9800"><path class="cls-1" d="m11.211 2.617.666.385-6.87 3.967-.667-.385zm1.872 1.081.666.385-6.871 3.966-.666-.384zm8.12 4.688.666.384-6.871 3.967-.666-.385zm1.871 1.08.666.385-6.87 3.967-.667-.385zM13.48 10.8 9.57 8.543a.796.46 0 0 1 0-.65l3.91-2.258a.796.46 0 0 1 1.126 0l3.91 2.258a.796.46 0 0 1 0 .65l-3.91 2.257a.796.46 0 0 1-1.126 0zm-3.14-2.582 3.703 2.138 3.704-2.138-3.704-2.139z"></path><path class="cls-1" d="m14.958 5.142.666.385-.936.54-.666-.385zm1.249.721.666.385-.936.54-.666-.385zm1.249.721.666.385-.936.54-.666-.385zm1.249.721.666.385-.936.54-.666-.385zm-9.053.9.667.385-.936.54-.667-.385zm1.25.721.665.385-.935.54-.667-.385zm1.248.721.666.385-.936.54-.666-.385zm1.25.721.665.385-.936.54-.666-.385z"></path><path class="cls-1" d="m13.126 5.142.936.54-.666.385-.936-.54zm-1.249.721.936.54-.666.385-.936-.54zm-1.249.721.936.54-.666.385-.936-.54zm-1.249.721.936.54-.666.385-.936-.54zm9.053.9.935.54-.666.385-.936-.54zm-1.25.721.936.54-.666.385-.936-.54zm-1.248.721.936.54-.667.385-.936-.54zm-1.25.721.937.54-.667.385-.935-.54z"></path></g></svg></g></g><g opacity="1"><g id="900ee75d-a925-4e3c-86f3-2950e8079af5" transform="translate(0 0)"><svg x="1099" y="1097" height="80.616" width="106.128" viewBox="0 0 28.08 21.33"><path d="M.265 10.053v4.894l10.596 6.118v-4.894zm10.596 6.118h6.358v4.894h-6.358z" fill="#232323" stroke="#000" stroke-width=".265"></path><path d="m17.219 21.065 10.596-6.118v-4.894l-10.596 6.118z" fill="#090909" stroke="#000" stroke-width=".265"></path><path d="M27.815 10.053v-3.67L17.219.265h-6.358L.264 6.382v3.671l10.597 6.118h6.358z" fill="#3c3c3c" stroke="#000" stroke-width=".265"></path><path d="m.265 14.947 10.596 6.118h6.358l10.596-6.118V6.383L17.219.265h-6.358L.264 6.383Z" fill="none" stroke="#000000" stroke-width=".529"></path><path class="cls-2" d="m11.499 8.439 3.05-1.761.406.235-1.389.802 2.71-.04.537.31-2.862.062-.067 1.769-.555-.32V7.852l-1.424.822z" fill="#ff9800"></path><g fill="#ff9800"><path class="cls-1" d="m11.211 2.617.666.385-6.87 3.967-.667-.385zm1.872 1.081.666.385-6.871 3.966-.666-.384zm8.12 4.688.666.384-6.871 3.967-.666-.385zm1.871 1.08.666.385-6.87 3.967-.667-.385zM13.48 10.8 9.57 8.543a.796.46 0 0 1 0-.65l3.91-2.258a.796.46 0 0 1 1.126 0l3.91 2.258a.796.46 0 0 1 0 .65l-3.91 2.257a.796.46 0 0 1-1.126 0zm-3.14-2.582 3.703 2.138 3.704-2.138-3.704-2.139z"></path><path class="cls-1" d="m14.958 5.142.666.385-.936.54-.666-.385zm1.249.721.666.385-.936.54-.666-.385zm1.249.721.666.385-.936.54-.666-.385zm1.249.721.666.385-.936.54-.666-.385zm-9.053.9.667.385-.936.54-.667-.385zm1.25.721.665.385-.935.54-.667-.385zm1.248.721.666.385-.936.54-.666-.385zm1.25.721.665.385-.936.54-.666-.385z"></path><path class="cls-1" d="m13.126 5.142.936.54-.666.385-.936-.54zm-1.249.721.936.54-.666.385-.936-.54zm-1.249.721.936.54-.666.385-.936-.54zm-1.249.721.936.54-.666.385-.936-.54zm9.053.9.935.54-.666.385-.936-.54zm-1.25.721.936.54-.666.385-.936-.54zm-1.248.721.936.54-.667.385-.936-.54zm-1.25.721.937.54-.667.385-.935-.54z"></path></g></svg></g></g><g opacity="1"><g id="548135b8-94a1-4a3d-b546-37dddfa32695" transform="translate(0 0)"><svg x="1355" y="1245" height="80.616" width="106.128" viewBox="0 0 28.08 21.33"><path d="M.265 10.053v4.894l10.596 6.118v-4.894zm10.596 6.118h6.358v4.894h-6.358z" fill="#232323" stroke="#000" stroke-width=".265"></path><path d="m17.219 21.065 10.596-6.118v-4.894l-10.596 6.118z" fill="#090909" stroke="#000" stroke-width=".265"></path><path d="M27.815 10.053v-3.67L17.219.265h-6.358L.264 6.382v3.671l10.597 6.118h6.358z" fill="#3c3c3c" stroke="#000" stroke-width=".265"></path><path d="m.265 14.947 10.596 6.118h6.358l10.596-6.118V6.383L17.219.265h-6.358L.264 6.383Z" fill="none" stroke="#000000" stroke-width=".529"></path><path class="cls-2" d="m11.499 8.439 3.05-1.761.406.235-1.389.802 2.71-.04.537.31-2.862.062-.067 1.769-.555-.32V7.852l-1.424.822z" fill="#ff9800"></path><g fill="#ff9800"><path class="cls-1" d="m11.211 2.617.666.385-6.87 3.967-.667-.385zm1.872 1.081.666.385-6.871 3.966-.666-.384zm8.12 4.688.666.384-6.871 3.967-.666-.385zm1.871 1.08.666.385-6.87 3.967-.667-.385zM13.48 10.8 9.57 8.543a.796.46 0 0 1 0-.65l3.91-2.258a.796.46 0 0 1 1.126 0l3.91 2.258a.796.46 0 0 1 0 .65l-3.91 2.257a.796.46 0 0 1-1.126 0zm-3.14-2.582 3.703 2.138 3.704-2.138-3.704-2.139z"></path><path class="cls-1" d="m14.958 5.142.666.385-.936.54-.666-.385zm1.249.721.666.385-.936.54-.666-.385zm1.249.721.666.385-.936.54-.666-.385zm1.249.721.666.385-.936.54-.666-.385zm-9.053.9.667.385-.936.54-.667-.385zm1.25.721.665.385-.935.54-.667-.385zm1.248.721.666.385-.936.54-.666-.385zm1.25.721.665.385-.936.54-.666-.385z"></path><path class="cls-1" d="m13.126 5.142.936.54-.666.385-.936-.54zm-1.249.721.936.54-.666.385-.936-.54zm-1.249.721.936.54-.666.385-.936-.54zm-1.249.721.936.54-.666.385-.936-.54zm9.053.9.935.54-.666.385-.936-.54zm-1.25.721.936.54-.666.385-.936-.54zm-1.248.721.936.54-.667.385-.936-.54zm-1.25.721.937.54-.667.385-.935-.54z"></path></g></svg></g></g><g opacity="1"><g id="157fd81b-3d90-4913-90d2-a027add8c26f" transform="translate(0 0)"><svg x="1419" y="1282" height="80.616" width="106.128" viewBox="0 0 28.08 21.33"><path d="M.265 10.053v4.894l10.596 6.118v-4.894zm10.596 6.118h6.358v4.894h-6.358z" fill="#232323" stroke="#000" stroke-width=".265"></path><path d="m17.219 21.065 10.596-6.118v-4.894l-10.596 6.118z" fill="#090909" stroke="#000" stroke-width=".265"></path><path d="M27.815 10.053v-3.67L17.219.265h-6.358L.264 6.382v3.671l10.597 6.118h6.358z" fill="#3c3c3c" stroke="#000" stroke-width=".265"></path><path d="m.265 14.947 10.596 6.118h6.358l10.596-6.118V6.383L17.219.265h-6.358L.264 6.383Z" fill="none" stroke="#000000" stroke-width=".529"></path><path class="cls-2" d="m11.499 8.439 3.05-1.761.406.235-1.389.802 2.71-.04.537.31-2.862.062-.067 1.769-.555-.32V7.852l-1.424.822z" fill="#ff9800"></path><g fill="#ff9800"><path class="cls-1" d="m11.211 2.617.666.385-6.87 3.967-.667-.385zm1.872 1.081.666.385-6.871 3.966-.666-.384zm8.12 4.688.666.384-6.871 3.967-.666-.385zm1.871 1.08.666.385-6.87 3.967-.667-.385zM13.48 10.8 9.57 8.543a.796.46 0 0 1 0-.65l3.91-2.258a.796.46 0 0 1 1.126 0l3.91 2.258a.796.46 0 0 1 0 .65l-3.91 2.257a.796.46 0 0 1-1.126 0zm-3.14-2.582 3.703 2.138 3.704-2.138-3.704-2.139z"></path><path class="cls-1" d="m14.958 5.142.666.385-.936.54-.666-.385zm1.249.721.666.385-.936.54-.666-.385zm1.249.721.666.385-.936.54-.666-.385zm1.249.721.666.385-.936.54-.666-.385zm-9.053.9.667.385-.936.54-.667-.385zm1.25.721.665.385-.935.54-.667-.385zm1.248.721.666.385-.936.54-.666-.385zm1.25.721.665.385-.936.54-.666-.385z"></path><path class="cls-1" d="m13.126 5.142.936.54-.666.385-.936-.54zm-1.249.721.936.54-.666.385-.936-.54zm-1.249.721.936.54-.666.385-.936-.54zm-1.249.721.936.54-.666.385-.936-.54zm9.053.9.935.54-.666.385-.936-.54zm-1.25.721.936.54-.666.385-.936-.54zm-1.248.721.936.54-.667.385-.936-.54zm-1.25.721.937.54-.667.385-.935-.54z"></path></g></svg></g></g><g opacity="1"><g id="cb622d40-67b5-4cdc-83f7-2037e2a0e4b8" transform="translate(0 0)"><svg x="1675" y="1430" height="80.616" width="106.128" viewBox="0 0 28.08 21.33"><path d="M.265 10.053v4.894l10.596 6.118v-4.894zm10.596 6.118h6.358v4.894h-6.358z" fill="#232323" stroke="#000" stroke-width=".265"></path><path d="m17.219 21.065 10.596-6.118v-4.894l-10.596 6.118z" fill="#090909" stroke="#000" stroke-width=".265"></path><path d="M27.815 10.053v-3.67L17.219.265h-6.358L.264 6.382v3.671l10.597 6.118h6.358z" fill="#3c3c3c" stroke="#000" stroke-width=".265"></path><path d="m.265 14.947 10.596 6.118h6.358l10.596-6.118V6.383L17.219.265h-6.358L.264 6.383Z" fill="none" stroke="#000000" stroke-width=".529"></path><path class="cls-2" d="m11.499 8.439 3.05-1.761.406.235-1.389.802 2.71-.04.537.31-2.862.062-.067 1.769-.555-.32V7.852l-1.424.822z" fill="#ff9800"></path><g fill="#ff9800"><path class="cls-1" d="m11.211 2.617.666.385-6.87 3.967-.667-.385zm1.872 1.081.666.385-6.871 3.966-.666-.384zm8.12 4.688.666.384-6.871 3.967-.666-.385zm1.871 1.08.666.385-6.87 3.967-.667-.385zM13.48 10.8 9.57 8.543a.796.46 0 0 1 0-.65l3.91-2.258a.796.46 0 0 1 1.126 0l3.91 2.258a.796.46 0 0 1 0 .65l-3.91 2.257a.796.46 0 0 1-1.126 0zm-3.14-2.582 3.703 2.138 3.704-2.138-3.704-2.139z"></path><path class="cls-1" d="m14.958 5.142.666.385-.936.54-.666-.385zm1.249.721.666.385-.936.54-.666-.385zm1.249.721.666.385-.936.54-.666-.385zm1.249.721.666.385-.936.54-.666-.385zm-9.053.9.667.385-.936.54-.667-.385zm1.25.721.665.385-.935.54-.667-.385zm1.248.721.666.385-.936.54-.666-.385zm1.25.721.665.385-.936.54-.666-.385z"></path><path class="cls-1" d="m13.126 5.142.936.54-.666.385-.936-.54zm-1.249.721.936.54-.666.385-.936-.54zm-1.249.721.936.54-.666.385-.936-.54zm-1.249.721.936.54-.666.385-.936-.54zm9.053.9.935.54-.666.385-.936-.54zm-1.25.721.936.54-.666.385-.936-.54zm-1.248.721.936.54-.667.385-.936-.54zm-1.25.721.937.54-.667.385-.935-.54z"></path></g></svg></g></g><g opacity="1"><g id="345c99e6-e377-478f-b75f-fdfd0f663be2" transform="translate(0 0)"><svg x="1739" y="1467" height="80.616" width="106.128" viewBox="0 0 28.08 21.33"><path d="M.265 10.053v4.894l10.596 6.118v-4.894zm10.596 6.118h6.358v4.894h-6.358z" fill="#232323" stroke="#000" stroke-width=".265"></path><path d="m17.219 21.065 10.596-6.118v-4.894l-10.596 6.118z" fill="#090909" stroke="#000" stroke-width=".265"></path><path d="M27.815 10.053v-3.67L17.219.265h-6.358L.264 6.382v3.671l10.597 6.118h6.358z" fill="#3c3c3c" stroke="#000" stroke-width=".265"></path><path d="m.265 14.947 10.596 6.118h6.358l10.596-6.118V6.383L17.219.265h-6.358L.264 6.383Z" fill="none" stroke="#000000" stroke-width=".529"></path><path class="cls-2" d="m11.499 8.439 3.05-1.761.406.235-1.389.802 2.71-.04.537.31-2.862.062-.067 1.769-.555-.32V7.852l-1.424.822z" fill="#ff9800"></path><g fill="#ff9800"><path class="cls-1" d="m11.211 2.617.666.385-6.87 3.967-.667-.385zm1.872 1.081.666.385-6.871 3.966-.666-.384zm8.12 4.688.666.384-6.871 3.967-.666-.385zm1.871 1.08.666.385-6.87 3.967-.667-.385zM13.48 10.8 9.57 8.543a.796.46 0 0 1 0-.65l3.91-2.258a.796.46 0 0 1 1.126 0l3.91 2.258a.796.46 0 0 1 0 .65l-3.91 2.257a.796.46 0 0 1-1.126 0zm-3.14-2.582 3.703 2.138 3.704-2.138-3.704-2.139z"></path><path class="cls-1" d="m14.958 5.142.666.385-.936.54-.666-.385zm1.249.721.666.385-.936.54-.666-.385zm1.249.721.666.385-.936.54-.666-.385zm1.249.721.666.385-.936.54-.666-.385zm-9.053.9.667.385-.936.54-.667-.385zm1.25.721.665.385-.935.54-.667-.385zm1.248.721.666.385-.936.54-.666-.385zm1.25.721.665.385-.936.54-.666-.385z"></path><path class="cls-1" d="m13.126 5.142.936.54-.666.385-.936-.54zm-1.249.721.936.54-.666.385-.936-.54zm-1.249.721.936.54-.666.385-.936-.54zm-1.249.721.936.54-.666.385-.936-.54zm9.053.9.935.54-.666.385-.936-.54zm-1.25.721.936.54-.666.385-.936-.54zm-1.248.721.936.54-.667.385-.936-.54zm-1.25.721.937.54-.667.385-.935-.54z"></path></g></svg></g></g><g opacity="1"><g id="dfc67245-161c-460f-a403-f3014412cd58" transform="translate(0 0)"><svg x="1995" y="1615" height="80.616" width="106.128" viewBox="0 0 28.08 21.33"><path d="M.265 10.053v4.894l10.596 6.118v-4.894zm10.596 6.118h6.358v4.894h-6.358z" fill="#232323" stroke="#000" stroke-width=".265"></path><path d="m17.219 21.065 10.596-6.118v-4.894l-10.596 6.118z" fill="#090909" stroke="#000" stroke-width=".265"></path><path d="M27.815 10.053v-3.67L17.219.265h-6.358L.264 6.382v3.671l10.597 6.118h6.358z" fill="#3c3c3c" stroke="#000" stroke-width=".265"></path><path d="m.265 14.947 10.596 6.118h6.358l10.596-6.118V6.383L17.219.265h-6.358L.264 6.383Z" fill="none" stroke="#000000" stroke-width=".529"></path><path class="cls-2" d="m11.499 8.439 3.05-1.761.406.235-1.389.802 2.71-.04.537.31-2.862.062-.067 1.769-.555-.32V7.852l-1.424.822z" fill="#ff9800"></path><g fill="#ff9800"><path class="cls-1" d="m11.211 2.617.666.385-6.87 3.967-.667-.385zm1.872 1.081.666.385-6.871 3.966-.666-.384zm8.12 4.688.666.384-6.871 3.967-.666-.385zm1.871 1.08.666.385-6.87 3.967-.667-.385zM13.48 10.8 9.57 8.543a.796.46 0 0 1 0-.65l3.91-2.258a.796.46 0 0 1 1.126 0l3.91 2.258a.796.46 0 0 1 0 .65l-3.91 2.257a.796.46 0 0 1-1.126 0zm-3.14-2.582 3.703 2.138 3.704-2.138-3.704-2.139z"></path><path class="cls-1" d="m14.958 5.142.666.385-.936.54-.666-.385zm1.249.721.666.385-.936.54-.666-.385zm1.249.721.666.385-.936.54-.666-.385zm1.249.721.666.385-.936.54-.666-.385zm-9.053.9.667.385-.936.54-.667-.385zm1.25.721.665.385-.935.54-.667-.385zm1.248.721.666.385-.936.54-.666-.385zm1.25.721.665.385-.936.54-.666-.385z"></path><path class="cls-1" d="m13.126 5.142.936.54-.666.385-.936-.54zm-1.249.721.936.54-.666.385-.936-.54zm-1.249.721.936.54-.666.385-.936-.54zm-1.249.721.936.54-.666.385-.936-.54zm9.053.9.935.54-.666.385-.936-.54zm-1.25.721.936.54-.666.385-.936-.54zm-1.248.721.936.54-.667.385-.936-.54zm-1.25.721.937.54-.667.385-.935-.54z"></path></g></svg></g></g><g opacity="1"><g id="fc6bc116-4894-4b1e-8695-c1e3f8d95b1d" transform="translate(0 0)"><svg x="2251" y="1763" height="80.616" width="106.128" viewBox="0 0 28.08 21.33"><path d="M.265 10.053v4.894l10.596 6.118v-4.894zm10.596 6.118h6.358v4.894h-6.358z" fill="#232323" stroke="#000" stroke-width=".265"></path><path d="m17.219 21.065 10.596-6.118v-4.894l-10.596 6.118z" fill="#090909" stroke="#000" stroke-width=".265"></path><path d="M27.815 10.053v-3.67L17.219.265h-6.358L.264 6.382v3.671l10.597 6.118h6.358z" fill="#3c3c3c" stroke="#000" stroke-width=".265"></path><path d="m.265 14.947 10.596 6.118h6.358l10.596-6.118V6.383L17.219.265h-6.358L.264 6.383Z" fill="none" stroke="#000000" stroke-width=".529"></path><path class="cls-2" d="m11.499 8.439 3.05-1.761.406.235-1.389.802 2.71-.04.537.31-2.862.062-.067 1.769-.555-.32V7.852l-1.424.822z" fill="#ff9800"></path><g fill="#ff9800"><path class="cls-1" d="m11.211 2.617.666.385-6.87 3.967-.667-.385zm1.872 1.081.666.385-6.871 3.966-.666-.384zm8.12 4.688.666.384-6.871 3.967-.666-.385zm1.871 1.08.666.385-6.87 3.967-.667-.385zM13.48 10.8 9.57 8.543a.796.46 0 0 1 0-.65l3.91-2.258a.796.46 0 0 1 1.126 0l3.91 2.258a.796.46 0 0 1 0 .65l-3.91 2.257a.796.46 0 0 1-1.126 0zm-3.14-2.582 3.703 2.138 3.704-2.138-3.704-2.139z"></path><path class="cls-1" d="m14.958 5.142.666.385-.936.54-.666-.385zm1.249.721.666.385-.936.54-.666-.385zm1.249.721.666.385-.936.54-.666-.385zm1.249.721.666.385-.936.54-.666-.385zm-9.053.9.667.385-.936.54-.667-.385zm1.25.721.665.385-.935.54-.667-.385zm1.248.721.666.385-.936.54-.666-.385zm1.25.721.665.385-.936.54-.666-.385z"></path><path class="cls-1" d="m13.126 5.142.936.54-.666.385-.936-.54zm-1.249.721.936.54-.666.385-.936-.54zm-1.249.721.936.54-.666.385-.936-.54zm-1.249.721.936.54-.666.385-.936-.54zm9.053.9.935.54-.666.385-.936-.54zm-1.25.721.936.54-.666.385-.936-.54zm-1.248.721.936.54-.667.385-.936-.54zm-1.25.721.937.54-.667.385-.935-.54z"></path></g></svg></g></g><g opacity="1"><g id="961951cf-0082-4dcb-8fb3-56300c0586bf" transform="translate(0 0)"><svg x="2315" y="1800" height="80.616" width="106.128" viewBox="0 0 28.08 21.33"><path d="M.265 10.053v4.894l10.596 6.118v-4.894zm10.596 6.118h6.358v4.894h-6.358z" fill="#232323" stroke="#000" stroke-width=".265"></path><path d="m17.219 21.065 10.596-6.118v-4.894l-10.596 6.118z" fill="#090909" stroke="#000" stroke-width=".265"></path><path d="M27.815 10.053v-3.67L17.219.265h-6.358L.264 6.382v3.671l10.597 6.118h6.358z" fill="#3c3c3c" stroke="#000" stroke-width=".265"></path><path d="m.265 14.947 10.596 6.118h6.358l10.596-6.118V6.383L17.219.265h-6.358L.264 6.383Z" fill="none" stroke="#000000" stroke-width=".529"></path><path class="cls-2" d="m11.499 8.439 3.05-1.761.406.235-1.389.802 2.71-.04.537.31-2.862.062-.067 1.769-.555-.32V7.852l-1.424.822z" fill="#ff9800"></path><g fill="#ff9800"><path class="cls-1" d="m11.211 2.617.666.385-6.87 3.967-.667-.385zm1.872 1.081.666.385-6.871 3.966-.666-.384zm8.12 4.688.666.384-6.871 3.967-.666-.385zm1.871 1.08.666.385-6.87 3.967-.667-.385zM13.48 10.8 9.57 8.543a.796.46 0 0 1 0-.65l3.91-2.258a.796.46 0 0 1 1.126 0l3.91 2.258a.796.46 0 0 1 0 .65l-3.91 2.257a.796.46 0 0 1-1.126 0zm-3.14-2.582 3.703 2.138 3.704-2.138-3.704-2.139z"></path><path class="cls-1" d="m14.958 5.142.666.385-.936.54-.666-.385zm1.249.721.666.385-.936.54-.666-.385zm1.249.721.666.385-.936.54-.666-.385zm1.249.721.666.385-.936.54-.666-.385zm-9.053.9.667.385-.936.54-.667-.385zm1.25.721.665.385-.935.54-.667-.385zm1.248.721.666.385-.936.54-.666-.385zm1.25.721.665.385-.936.54-.666-.385z"></path><path class="cls-1" d="m13.126 5.142.936.54-.666.385-.936-.54zm-1.249.721.936.54-.666.385-.936-.54zm-1.249.721.936.54-.666.385-.936-.54zm-1.249.721.936.54-.666.385-.936-.54zm9.053.9.935.54-.666.385-.936-.54zm-1.25.721.936.54-.666.385-.936-.54zm-1.248.721.936.54-.667.385-.936-.54zm-1.25.721.937.54-.667.385-.935-.54z"></path></g></svg></g></g><g opacity="1"><g id="ba3962fa-6efe-4028-b074-1da55b34af8f" transform="translate(0 0)"><svg x="2571" y="1948" height="80.616" width="106.128" viewBox="0 0 28.08 21.33"><path d="M.265 10.053v4.894l10.596 6.118v-4.894zm10.596 6.118h6.358v4.894h-6.358z" fill="#232323" stroke="#000" stroke-width=".265"></path><path d="m17.219 21.065 10.596-6.118v-4.894l-10.596 6.118z" fill="#090909" stroke="#000" stroke-width=".265"></path><path d="M27.815 10.053v-3.67L17.219.265h-6.358L.264 6.382v3.671l10.597 6.118h6.358z" fill="#3c3c3c" stroke="#000" stroke-width=".265"></path><path d="m.265 14.947 10.596 6.118h6.358l10.596-6.118V6.383L17.219.265h-6.358L.264 6.383Z" fill="none" stroke="#000000" stroke-width=".529"></path><path class="cls-2" d="m11.499 8.439 3.05-1.761.406.235-1.389.802 2.71-.04.537.31-2.862.062-.067 1.769-.555-.32V7.852l-1.424.822z" fill="#ff9800"></path><g fill="#ff9800"><path class="cls-1" d="m11.211 2.617.666.385-6.87 3.967-.667-.385zm1.872 1.081.666.385-6.871 3.966-.666-.384zm8.12 4.688.666.384-6.871 3.967-.666-.385zm1.871 1.08.666.385-6.87 3.967-.667-.385zM13.48 10.8 9.57 8.543a.796.46 0 0 1 0-.65l3.91-2.258a.796.46 0 0 1 1.126 0l3.91 2.258a.796.46 0 0 1 0 .65l-3.91 2.257a.796.46 0 0 1-1.126 0zm-3.14-2.582 3.703 2.138 3.704-2.138-3.704-2.139z"></path><path class="cls-1" d="m14.958 5.142.666.385-.936.54-.666-.385zm1.249.721.666.385-.936.54-.666-.385zm1.249.721.666.385-.936.54-.666-.385zm1.249.721.666.385-.936.54-.666-.385zm-9.053.9.667.385-.936.54-.667-.385zm1.25.721.665.385-.935.54-.667-.385zm1.248.721.666.385-.936.54-.666-.385zm1.25.721.665.385-.936.54-.666-.385z"></path><path class="cls-1" d="m13.126 5.142.936.54-.666.385-.936-.54zm-1.249.721.936.54-.666.385-.936-.54zm-1.249.721.936.54-.666.385-.936-.54zm-1.249.721.936.54-.666.385-.936-.54zm9.053.9.935.54-.666.385-.936-.54zm-1.25.721.936.54-.666.385-.936-.54zm-1.248.721.936.54-.667.385-.936-.54zm-1.25.721.937.54-.667.385-.935-.54z"></path></g></svg></g></g><g opacity="1"><g id="df508b89-b75f-46c1-8265-29e0ec770dc5" transform="translate(0 0)"><svg x="2827" y="2096" height="80.616" width="106.128" viewBox="0 0 28.08 21.33"><path d="M.265 10.053v4.894l10.596 6.118v-4.894zm10.596 6.118h6.358v4.894h-6.358z" fill="#232323" stroke="#000" stroke-width=".265"></path><path d="m17.219 21.065 10.596-6.118v-4.894l-10.596 6.118z" fill="#090909" stroke="#000" stroke-width=".265"></path><path d="M27.815 10.053v-3.67L17.219.265h-6.358L.264 6.382v3.671l10.597 6.118h6.358z" fill="#3c3c3c" stroke="#000" stroke-width=".265"></path><path d="m.265 14.947 10.596 6.118h6.358l10.596-6.118V6.383L17.219.265h-6.358L.264 6.383Z" fill="none" stroke="#000000" stroke-width=".529"></path><path class="cls-2" d="m11.499 8.439 3.05-1.761.406.235-1.389.802 2.71-.04.537.31-2.862.062-.067 1.769-.555-.32V7.852l-1.424.822z" fill="#ff9800"></path><g fill="#ff9800"><path class="cls-1" d="m11.211 2.617.666.385-6.87 3.967-.667-.385zm1.872 1.081.666.385-6.871 3.966-.666-.384zm8.12 4.688.666.384-6.871 3.967-.666-.385zm1.871 1.08.666.385-6.87 3.967-.667-.385zM13.48 10.8 9.57 8.543a.796.46 0 0 1 0-.65l3.91-2.258a.796.46 0 0 1 1.126 0l3.91 2.258a.796.46 0 0 1 0 .65l-3.91 2.257a.796.46 0 0 1-1.126 0zm-3.14-2.582 3.703 2.138 3.704-2.138-3.704-2.139z"></path><path class="cls-1" d="m14.958 5.142.666.385-.936.54-.666-.385zm1.249.721.666.385-.936.54-.666-.385zm1.249.721.666.385-.936.54-.666-.385zm1.249.721.666.385-.936.54-.666-.385zm-9.053.9.667.385-.936.54-.667-.385zm1.25.721.665.385-.935.54-.667-.385zm1.248.721.666.385-.936.54-.666-.385zm1.25.721.665.385-.936.54-.666-.385z"></path><path class="cls-1" d="m13.126 5.142.936.54-.666.385-.936-.54zm-1.249.721.936.54-.666.385-.936-.54zm-1.249.721.936.54-.666.385-.936-.54zm-1.249.721.936.54-.666.385-.936-.54zm9.053.9.935.54-.666.385-.936-.54zm-1.25.721.936.54-.666.385-.936-.54zm-1.248.721.936.54-.667.385-.936-.54zm-1.25.721.937.54-.667.385-.935-.54z"></path></g></svg></g></g><g opacity="1"><g id="4dda4f2a-8921-44a5-af25-7f78684d1a2d" transform="translate(0 0)"><svg x="2891" y="2133" height="80.616" width="106.128" viewBox="0 0 28.08 21.33"><path d="M.265 10.053v4.894l10.596 6.118v-4.894zm10.596 6.118h6.358v4.894h-6.358z" fill="#232323" stroke="#000" stroke-width=".265"></path><path d="m17.219 21.065 10.596-6.118v-4.894l-10.596 6.118z" fill="#090909" stroke="#000" stroke-width=".265"></path><path d="M27.815 10.053v-3.67L17.219.265h-6.358L.264 6.382v3.671l10.597 6.118h6.358z" fill="#3c3c3c" stroke="#000" stroke-width=".265"></path><path d="m.265 14.947 10.596 6.118h6.358l10.596-6.118V6.383L17.219.265h-6.358L.264 6.383Z" fill="none" stroke="#000000" stroke-width=".529"></path><path class="cls-2" d="m11.499 8.439 3.05-1.761.406.235-1.389.802 2.71-.04.537.31-2.862.062-.067 1.769-.555-.32V7.852l-1.424.822z" fill="#ff9800"></path><g fill="#ff9800"><path class="cls-1" d="m11.211 2.617.666.385-6.87 3.967-.667-.385zm1.872 1.081.666.385-6.871 3.966-.666-.384zm8.12 4.688.666.384-6.871 3.967-.666-.385zm1.871 1.08.666.385-6.87 3.967-.667-.385zM13.48 10.8 9.57 8.543a.796.46 0 0 1 0-.65l3.91-2.258a.796.46 0 0 1 1.126 0l3.91 2.258a.796.46 0 0 1 0 .65l-3.91 2.257a.796.46 0 0 1-1.126 0zm-3.14-2.582 3.703 2.138 3.704-2.138-3.704-2.139z"></path><path class="cls-1" d="m14.958 5.142.666.385-.936.54-.666-.385zm1.249.721.666.385-.936.54-.666-.385zm1.249.721.666.385-.936.54-.666-.385zm1.249.721.666.385-.936.54-.666-.385zm-9.053.9.667.385-.936.54-.667-.385zm1.25.721.665.385-.935.54-.667-.385zm1.248.721.666.385-.936.54-.666-.385zm1.25.721.665.385-.936.54-.666-.385z"></path><path class="cls-1" d="m13.126 5.142.936.54-.666.385-.936-.54zm-1.249.721.936.54-.666.385-.936-.54zm-1.249.721.936.54-.666.385-.936-.54zm-1.249.721.936.54-.666.385-.936-.54zm9.053.9.935.54-.666.385-.936-.54zm-1.25.721.936.54-.666.385-.936-.54zm-1.248.721.936.54-.667.385-.936-.54zm-1.25.721.937.54-.667.385-.935-.54z"></path></g></svg></g></g><g opacity="1"><g id="68b98cd2-194e-403f-9486-facdf0067d71" transform="translate(0 0)"><svg x="3147" y="2281" height="80.616" width="106.128" viewBox="0 0 28.08 21.33"><path d="M.265 10.053v4.894l10.596 6.118v-4.894zm10.596 6.118h6.358v4.894h-6.358z" fill="#232323" stroke="#000" stroke-width=".265"></path><path d="m17.219 21.065 10.596-6.118v-4.894l-10.596 6.118z" fill="#090909" stroke="#000" stroke-width=".265"></path><path d="M27.815 10.053v-3.67L17.219.265h-6.358L.264 6.382v3.671l10.597 6.118h6.358z" fill="#3c3c3c" stroke="#000" stroke-width=".265"></path><path d="m.265 14.947 10.596 6.118h6.358l10.596-6.118V6.383L17.219.265h-6.358L.264 6.383Z" fill="none" stroke="#000000" stroke-width=".529"></path><path class="cls-2" d="m11.499 8.439 3.05-1.761.406.235-1.389.802 2.71-.04.537.31-2.862.062-.067 1.769-.555-.32V7.852l-1.424.822z" fill="#ff9800"></path><g fill="#ff9800"><path class="cls-1" d="m11.211 2.617.666.385-6.87 3.967-.667-.385zm1.872 1.081.666.385-6.871 3.966-.666-.384zm8.12 4.688.666.384-6.871 3.967-.666-.385zm1.871 1.08.666.385-6.87 3.967-.667-.385zM13.48 10.8 9.57 8.543a.796.46 0 0 1 0-.65l3.91-2.258a.796.46 0 0 1 1.126 0l3.91 2.258a.796.46 0 0 1 0 .65l-3.91 2.257a.796.46 0 0 1-1.126 0zm-3.14-2.582 3.703 2.138 3.704-2.138-3.704-2.139z"></path><path class="cls-1" d="m14.958 5.142.666.385-.936.54-.666-.385zm1.249.721.666.385-.936.54-.666-.385zm1.249.721.666.385-.936.54-.666-.385zm1.249.721.666.385-.936.54-.666-.385zm-9.053.9.667.385-.936.54-.667-.385zm1.25.721.665.385-.935.54-.667-.385zm1.248.721.666.385-.936.54-.666-.385zm1.25.721.665.385-.936.54-.666-.385z"></path><path class="cls-1" d="m13.126 5.142.936.54-.666.385-.936-.54zm-1.249.721.936.54-.666.385-.936-.54zm-1.249.721.936.54-.666.385-.936-.54zm-1.249.721.936.54-.666.385-.936-.54zm9.053.9.935.54-.666.385-.936-.54zm-1.25.721.936.54-.666.385-.936-.54zm-1.248.721.936.54-.667.385-.936-.54zm-1.25.721.937.54-.667.385-.935-.54z"></path></g></svg></g></g><g opacity="1"><g id="a8782e20-dd9b-4177-a53c-d20f41309edd" transform="translate(0 0)"><svg x="3211" y="2318" height="80.616" width="106.128" viewBox="0 0 28.08 21.33"><path d="M.265 10.053v4.894l10.596 6.118v-4.894zm10.596 6.118h6.358v4.894h-6.358z" fill="#232323" stroke="#000" stroke-width=".265"></path><path d="m17.219 21.065 10.596-6.118v-4.894l-10.596 6.118z" fill="#090909" stroke="#000" stroke-width=".265"></path><path d="M27.815 10.053v-3.67L17.219.265h-6.358L.264 6.382v3.671l10.597 6.118h6.358z" fill="#3c3c3c" stroke="#000" stroke-width=".265"></path><path d="m.265 14.947 10.596 6.118h6.358l10.596-6.118V6.383L17.219.265h-6.358L.264 6.383Z" fill="none" stroke="#000000" stroke-width=".529"></path><path class="cls-2" d="m11.499 8.439 3.05-1.761.406.235-1.389.802 2.71-.04.537.31-2.862.062-.067 1.769-.555-.32V7.852l-1.424.822z" fill="#ff9800"></path><g fill="#ff9800"><path class="cls-1" d="m11.211 2.617.666.385-6.87 3.967-.667-.385zm1.872 1.081.666.385-6.871 3.966-.666-.384zm8.12 4.688.666.384-6.871 3.967-.666-.385zm1.871 1.08.666.385-6.87 3.967-.667-.385zM13.48 10.8 9.57 8.543a.796.46 0 0 1 0-.65l3.91-2.258a.796.46 0 0 1 1.126 0l3.91 2.258a.796.46 0 0 1 0 .65l-3.91 2.257a.796.46 0 0 1-1.126 0zm-3.14-2.582 3.703 2.138 3.704-2.138-3.704-2.139z"></path><path class="cls-1" d="m14.958 5.142.666.385-.936.54-.666-.385zm1.249.721.666.385-.936.54-.666-.385zm1.249.721.666.385-.936.54-.666-.385zm1.249.721.666.385-.936.54-.666-.385zm-9.053.9.667.385-.936.54-.667-.385zm1.25.721.665.385-.935.54-.667-.385zm1.248.721.666.385-.936.54-.666-.385zm1.25.721.665.385-.936.54-.666-.385z"></path><path class="cls-1" d="m13.126 5.142.936.54-.666.385-.936-.54zm-1.249.721.936.54-.666.385-.936-.54zm-1.249.721.936.54-.666.385-.936-.54zm-1.249.721.936.54-.666.385-.936-.54zm9.053.9.935.54-.666.385-.936-.54zm-1.25.721.936.54-.666.385-.936-.54zm-1.248.721.936.54-.667.385-.936-.54zm-1.25.721.937.54-.667.385-.935-.54z"></path></g></svg></g></g><g opacity="1"><g id="250a0d50-380f-4232-81d7-58b77e6e79f5" transform="translate(0 0)"><svg x="3467" y="2466" height="80.616" width="106.128" viewBox="0 0 28.08 21.33"><path d="M.265 10.053v4.894l10.596 6.118v-4.894zm10.596 6.118h6.358v4.894h-6.358z" fill="#232323" stroke="#000" stroke-width=".265"></path><path d="m17.219 21.065 10.596-6.118v-4.894l-10.596 6.118z" fill="#090909" stroke="#000" stroke-width=".265"></path><path d="M27.815 10.053v-3.67L17.219.265h-6.358L.264 6.382v3.671l10.597 6.118h6.358z" fill="#3c3c3c" stroke="#000" stroke-width=".265"></path><path d="m.265 14.947 10.596 6.118h6.358l10.596-6.118V6.383L17.219.265h-6.358L.264 6.383Z" fill="none" stroke="#000000" stroke-width=".529"></path><path class="cls-2" d="m11.499 8.439 3.05-1.761.406.235-1.389.802 2.71-.04.537.31-2.862.062-.067 1.769-.555-.32V7.852l-1.424.822z" fill="#ff9800"></path><g fill="#ff9800"><path class="cls-1" d="m11.211 2.617.666.385-6.87 3.967-.667-.385zm1.872 1.081.666.385-6.871 3.966-.666-.384zm8.12 4.688.666.384-6.871 3.967-.666-.385zm1.871 1.08.666.385-6.87 3.967-.667-.385zM13.48 10.8 9.57 8.543a.796.46 0 0 1 0-.65l3.91-2.258a.796.46 0 0 1 1.126 0l3.91 2.258a.796.46 0 0 1 0 .65l-3.91 2.257a.796.46 0 0 1-1.126 0zm-3.14-2.582 3.703 2.138 3.704-2.138-3.704-2.139z"></path><path class="cls-1" d="m14.958 5.142.666.385-.936.54-.666-.385zm1.249.721.666.385-.936.54-.666-.385zm1.249.721.666.385-.936.54-.666-.385zm1.249.721.666.385-.936.54-.666-.385zm-9.053.9.667.385-.936.54-.667-.385zm1.25.721.665.385-.935.54-.667-.385zm1.248.721.666.385-.936.54-.666-.385zm1.25.721.665.385-.936.54-.666-.385z"></path><path class="cls-1" d="m13.126 5.142.936.54-.666.385-.936-.54zm-1.249.721.936.54-.666.385-.936-.54zm-1.249.721.936.54-.666.385-.936-.54zm-1.249.721.936.54-.666.385-.936-.54zm9.053.9.935.54-.666.385-.936-.54zm-1.25.721.936.54-.666.385-.936-.54zm-1.248.721.936.54-.667.385-.936-.54zm-1.25.721.937.54-.667.385-.935-.54z"></path></g></svg></g></g><g opacity="1"><g id="04bc509a-fc7e-45f2-910c-ab3b0c706837" transform="translate(0 0)"><svg x="3531" y="2503" height="80.616" width="106.128" viewBox="0 0 28.08 21.33"><path d="M.265 10.053v4.894l10.596 6.118v-4.894zm10.596 6.118h6.358v4.894h-6.358z" fill="#232323" stroke="#000" stroke-width=".265"></path><path d="m17.219 21.065 10.596-6.118v-4.894l-10.596 6.118z" fill="#090909" stroke="#000" stroke-width=".265"></path><path d="M27.815 10.053v-3.67L17.219.265h-6.358L.264 6.382v3.671l10.597 6.118h6.358z" fill="#3c3c3c" stroke="#000" stroke-width=".265"></path><path d="m.265 14.947 10.596 6.118h6.358l10.596-6.118V6.383L17.219.265h-6.358L.264 6.383Z" fill="none" stroke="#000000" stroke-width=".529"></path><path class="cls-2" d="m11.499 8.439 3.05-1.761.406.235-1.389.802 2.71-.04.537.31-2.862.062-.067 1.769-.555-.32V7.852l-1.424.822z" fill="#ff9800"></path><g fill="#ff9800"><path class="cls-1" d="m11.211 2.617.666.385-6.87 3.967-.667-.385zm1.872 1.081.666.385-6.871 3.966-.666-.384zm8.12 4.688.666.384-6.871 3.967-.666-.385zm1.871 1.08.666.385-6.87 3.967-.667-.385zM13.48 10.8 9.57 8.543a.796.46 0 0 1 0-.65l3.91-2.258a.796.46 0 0 1 1.126 0l3.91 2.258a.796.46 0 0 1 0 .65l-3.91 2.257a.796.46 0 0 1-1.126 0zm-3.14-2.582 3.703 2.138 3.704-2.138-3.704-2.139z"></path><path class="cls-1" d="m14.958 5.142.666.385-.936.54-.666-.385zm1.249.721.666.385-.936.54-.666-.385zm1.249.721.666.385-.936.54-.666-.385zm1.249.721.666.385-.936.54-.666-.385zm-9.053.9.667.385-.936.54-.667-.385zm1.25.721.665.385-.935.54-.667-.385zm1.248.721.666.385-.936.54-.666-.385zm1.25.721.665.385-.936.54-.666-.385z"></path><path class="cls-1" d="m13.126 5.142.936.54-.666.385-.936-.54zm-1.249.721.936.54-.666.385-.936-.54zm-1.249.721.936.54-.666.385-.936-.54zm-1.249.721.936.54-.666.385-.936-.54zm9.053.9.935.54-.666.385-.936-.54zm-1.25.721.936.54-.666.385-.936-.54zm-1.248.721.936.54-.667.385-.936-.54zm-1.25.721.937.54-.667.385-.935-.54z"></path></g></svg></g></g><g opacity="1"><g id="082f9c09-a027-4e8b-8f98-b20198ac276a" transform="translate(0 0)"><svg x="-249" y="419" height="93.28" width="81" viewBox="0 0 21.431 24.68"><path d="m.267 5.103 12.538 7.237 5.224-.603 3.134-9.048-4.18-2.412-15.67 1.81z" fill="#ececed" fill-rule="evenodd"></path><path d="M.267 5.103v12.063l12.538 7.238V12.34zm12.538 7.237 5.224-.603v12.064l-5.224.603z" fill="#d2d2d4" fill-rule="evenodd"></path><path d="m18.029 11.737 3.134-9.048v12.064l-3.134 9.048z" fill="#b8b8bb" fill-rule="evenodd"></path><path d="m.267 5.103 12.538 7.237 5.224-.603 3.134-9.048m-3.134 9.048v12.064M12.805 12.34v12.064" fill="none" stroke="#83838a" stroke-width=".265"></path><path d="m.267 17.166 12.538 7.238 5.224-.603 3.134-9.048V2.689L16.983.277l-15.67 1.81L.268 5.102z" fill="none" stroke="#000000" stroke-width=".529"></path><path d="M16.852 3.319c-.637-.01-1.269-.156-1.755-.437-.487-.28-.739-.645-.757-1.013l-3.498.035c.111.43-.12.884-.694 1.215-.363.21-.812.34-1.281.392-.625.067-1.226.241-1.71.52-1.272.736-1.277 1.926-.013 2.664.734.423 1.146.957 1.248 1.509.956.059 1.88.297 2.613.72 1.279.73 3.34.727 4.613-.008.484-.28.785-.626.903-.987.088-.27.314-.53.678-.74.573-.33 1.359-.464 2.104-.4l.06-2.02c-.636-.01-1.268-.156-1.754-.437-.487-.28-.739-.645-.757-1.013z" fill="none"></path><path d="M17.277 4.302c.467.27 1.056.427 1.664.471l-.05 1.693c-.73-.014-1.467.14-2.023.462-.404.234-.655.522-.754.824-.107.33-.382.647-.823.902-1.161.672-3.041.674-4.208.007-.722-.417-1.618-.665-2.554-.749-.145-.541-.574-1.06-1.296-1.478-1.152-.675-1.147-1.762.014-2.433.44-.255.988-.414 1.559-.476.521-.057 1.02-.203 1.424-.436.556-.322.823-.748.8-1.17l2.926-.03c.076.352.348.693.815.963.473.274 1.07.432 1.687.474.073.356.346.702.819.976z" fill="#4286c5" fill-rule="evenodd"></path><g fill="#ffffff" font-family="sans-serif" font-size="3.217" stroke-width=".268" style="line-height: 0%;"><path d="M177.61 45.984h2.004v.43h-1.537v.925q.112-.038.223-.056.11-.02.222-.02.632 0 1.001.346.369.346.369.938 0 .609-.38.948-.378.336-1.068.336-.238 0-.485-.04-.246-.041-.508-.122v-.513q.227.124.47.184.242.061.513.061.437 0 .692-.23.255-.23.255-.624t-.255-.624q-.255-.23-.692-.23-.205 0-.41.045-.202.046-.414.142zm4.837 1.739q.367.078.571.326.208.248.208.612 0 .558-.385.864-.384.306-1.091.306-.238 0-.49-.048-.25-.046-.519-.14v-.492q.212.124.465.187t.528.063q.48 0 .73-.19.254-.189.254-.55 0-.334-.235-.521-.233-.19-.65-.19h-.44v-.42h.46q.377 0 .576-.148.2-.152.2-.435 0-.29-.207-.445-.205-.157-.589-.157-.21 0-.45.046-.24.045-.528.142v-.455q.29-.081.543-.122.256-.04.48-.04.582 0 .92.265.34.263.34.713 0 .313-.18.53-.18.216-.51.299z" font-family="Interstate" font-size="5.176" transform="scale(1.31486 .76054) rotate(45 142.927 -178.732)" style="line-height: 1.25;"></path></g></svg></g></g><g opacity="1"><g id="50d54884-8491-4001-a9d6-fcc6848aa62a" transform="translate(0 0)"><svg x="971" y="1097" height="80.616" width="106.128" viewBox="0 0 28.08 21.33"><path d="M.265 10.053v4.894l10.596 6.118v-4.894zm10.596 6.118h6.358v4.894h-6.358z" fill="#232323" stroke="#000" stroke-width=".265"></path><path d="m17.219 21.065 10.596-6.118v-4.894l-10.596 6.118z" fill="#090909" stroke="#000" stroke-width=".265"></path><path d="M27.815 10.053v-3.67L17.219.265h-6.358L.264 6.382v3.671l10.597 6.118h6.358z" fill="#3c3c3c" stroke="#000" stroke-width=".265"></path><path d="m.265 14.947 10.596 6.118h6.358l10.596-6.118V6.383L17.219.265h-6.358L.264 6.383Z" fill="none" stroke="#000000" stroke-width=".529"></path><path class="cls-2" d="m11.499 8.439 3.05-1.761.406.235-1.389.802 2.71-.04.537.31-2.862.062-.067 1.769-.555-.32V7.852l-1.424.822z" fill="#ff9800"></path><g fill="#ff9800"><path class="cls-1" d="m11.211 2.617.666.385-6.87 3.967-.667-.385zm1.872 1.081.666.385-6.871 3.966-.666-.384zm8.12 4.688.666.384-6.871 3.967-.666-.385zm1.871 1.08.666.385-6.87 3.967-.667-.385zM13.48 10.8 9.57 8.543a.796.46 0 0 1 0-.65l3.91-2.258a.796.46 0 0 1 1.126 0l3.91 2.258a.796.46 0 0 1 0 .65l-3.91 2.257a.796.46 0 0 1-1.126 0zm-3.14-2.582 3.703 2.138 3.704-2.138-3.704-2.139z"></path><path class="cls-1" d="m14.958 5.142.666.385-.936.54-.666-.385zm1.249.721.666.385-.936.54-.666-.385zm1.249.721.666.385-.936.54-.666-.385zm1.249.721.666.385-.936.54-.666-.385zm-9.053.9.667.385-.936.54-.667-.385zm1.25.721.665.385-.935.54-.667-.385zm1.248.721.666.385-.936.54-.666-.385zm1.25.721.665.385-.936.54-.666-.385z"></path><path class="cls-1" d="m13.126 5.142.936.54-.666.385-.936-.54zm-1.249.721.936.54-.666.385-.936-.54zm-1.249.721.936.54-.666.385-.936-.54zm-1.249.721.936.54-.666.385-.936-.54zm9.053.9.935.54-.666.385-.936-.54zm-1.25.721.936.54-.666.385-.936-.54zm-1.248.721.936.54-.667.385-.936-.54zm-1.25.721.937.54-.667.385-.935-.54z"></path></g></svg></g></g><g opacity="1"><g id="7859b6ee-b517-4989-bed2-0220d24e6768" transform="translate(0 0)"><svg x="2763" y="2133" height="80.616" width="106.128" viewBox="0 0 28.08 21.33"><path d="M.265 10.053v4.894l10.596 6.118v-4.894zm10.596 6.118h6.358v4.894h-6.358z" fill="#232323" stroke="#000" stroke-width=".265"></path><path d="m17.219 21.065 10.596-6.118v-4.894l-10.596 6.118z" fill="#090909" stroke="#000" stroke-width=".265"></path><path d="M27.815 10.053v-3.67L17.219.265h-6.358L.264 6.382v3.671l10.597 6.118h6.358z" fill="#3c3c3c" stroke="#000" stroke-width=".265"></path><path d="m.265 14.947 10.596 6.118h6.358l10.596-6.118V6.383L17.219.265h-6.358L.264 6.383Z" fill="none" stroke="#000000" stroke-width=".529"></path><path class="cls-2" d="m11.499 8.439 3.05-1.761.406.235-1.389.802 2.71-.04.537.31-2.862.062-.067 1.769-.555-.32V7.852l-1.424.822z" fill="#ff9800"></path><g fill="#ff9800"><path class="cls-1" d="m11.211 2.617.666.385-6.87 3.967-.667-.385zm1.872 1.081.666.385-6.871 3.966-.666-.384zm8.12 4.688.666.384-6.871 3.967-.666-.385zm1.871 1.08.666.385-6.87 3.967-.667-.385zM13.48 10.8 9.57 8.543a.796.46 0 0 1 0-.65l3.91-2.258a.796.46 0 0 1 1.126 0l3.91 2.258a.796.46 0 0 1 0 .65l-3.91 2.257a.796.46 0 0 1-1.126 0zm-3.14-2.582 3.703 2.138 3.704-2.138-3.704-2.139z"></path><path class="cls-1" d="m14.958 5.142.666.385-.936.54-.666-.385zm1.249.721.666.385-.936.54-.666-.385zm1.249.721.666.385-.936.54-.666-.385zm1.249.721.666.385-.936.54-.666-.385zm-9.053.9.667.385-.936.54-.667-.385zm1.25.721.665.385-.935.54-.667-.385zm1.248.721.666.385-.936.54-.666-.385zm1.25.721.665.385-.936.54-.666-.385z"></path><path class="cls-1" d="m13.126 5.142.936.54-.666.385-.936-.54zm-1.249.721.936.54-.666.385-.936-.54zm-1.249.721.936.54-.666.385-.936-.54zm-1.249.721.936.54-.666.385-.936-.54zm9.053.9.935.54-.666.385-.936-.54zm-1.25.721.936.54-.666.385-.936-.54zm-1.248.721.936.54-.667.385-.936-.54zm-1.25.721.937.54-.667.385-.935-.54z"></path></g></svg></g></g><g opacity="1"><g id="ff2db0b1-3698-4182-bcb0-31c53174f2c5" transform="translate(0 0)"><svg x="3083" y="2318" height="80.616" width="106.128" viewBox="0 0 28.08 21.33"><path d="M.265 10.053v4.894l10.596 6.118v-4.894zm10.596 6.118h6.358v4.894h-6.358z" fill="#232323" stroke="#000" stroke-width=".265"></path><path d="m17.219 21.065 10.596-6.118v-4.894l-10.596 6.118z" fill="#090909" stroke="#000" stroke-width=".265"></path><path d="M27.815 10.053v-3.67L17.219.265h-6.358L.264 6.382v3.671l10.597 6.118h6.358z" fill="#3c3c3c" stroke="#000" stroke-width=".265"></path><path d="m.265 14.947 10.596 6.118h6.358l10.596-6.118V6.383L17.219.265h-6.358L.264 6.383Z" fill="none" stroke="#000000" stroke-width=".529"></path><path class="cls-2" d="m11.499 8.439 3.05-1.761.406.235-1.389.802 2.71-.04.537.31-2.862.062-.067 1.769-.555-.32V7.852l-1.424.822z" fill="#ff9800"></path><g fill="#ff9800"><path class="cls-1" d="m11.211 2.617.666.385-6.87 3.967-.667-.385zm1.872 1.081.666.385-6.871 3.966-.666-.384zm8.12 4.688.666.384-6.871 3.967-.666-.385zm1.871 1.08.666.385-6.87 3.967-.667-.385zM13.48 10.8 9.57 8.543a.796.46 0 0 1 0-.65l3.91-2.258a.796.46 0 0 1 1.126 0l3.91 2.258a.796.46 0 0 1 0 .65l-3.91 2.257a.796.46 0 0 1-1.126 0zm-3.14-2.582 3.703 2.138 3.704-2.138-3.704-2.139z"></path><path class="cls-1" d="m14.958 5.142.666.385-.936.54-.666-.385zm1.249.721.666.385-.936.54-.666-.385zm1.249.721.666.385-.936.54-.666-.385zm1.249.721.666.385-.936.54-.666-.385zm-9.053.9.667.385-.936.54-.667-.385zm1.25.721.665.385-.935.54-.667-.385zm1.248.721.666.385-.936.54-.666-.385zm1.25.721.665.385-.936.54-.666-.385z"></path><path class="cls-1" d="m13.126 5.142.936.54-.666.385-.936-.54zm-1.249.721.936.54-.666.385-.936-.54zm-1.249.721.936.54-.666.385-.936-.54zm-1.249.721.936.54-.666.385-.936-.54zm9.053.9.935.54-.666.385-.936-.54zm-1.25.721.936.54-.666.385-.936-.54zm-1.248.721.936.54-.667.385-.936-.54zm-1.25.721.937.54-.667.385-.935-.54z"></path></g></svg></g></g><g opacity="1"><g id="9d43e74a-82ff-4554-9bbb-47c736963001" transform="translate(0 0)"><svg x="3403" y="2503" height="80.616" width="106.128" viewBox="0 0 28.08 21.33"><path d="M.265 10.053v4.894l10.596 6.118v-4.894zm10.596 6.118h6.358v4.894h-6.358z" fill="#232323" stroke="#000" stroke-width=".265"></path><path d="m17.219 21.065 10.596-6.118v-4.894l-10.596 6.118z" fill="#090909" stroke="#000" stroke-width=".265"></path><path d="M27.815 10.053v-3.67L17.219.265h-6.358L.264 6.382v3.671l10.597 6.118h6.358z" fill="#3c3c3c" stroke="#000" stroke-width=".265"></path><path d="m.265 14.947 10.596 6.118h6.358l10.596-6.118V6.383L17.219.265h-6.358L.264 6.383Z" fill="none" stroke="#000000" stroke-width=".529"></path><path class="cls-2" d="m11.499 8.439 3.05-1.761.406.235-1.389.802 2.71-.04.537.31-2.862.062-.067 1.769-.555-.32V7.852l-1.424.822z" fill="#ff9800"></path><g fill="#ff9800"><path class="cls-1" d="m11.211 2.617.666.385-6.87 3.967-.667-.385zm1.872 1.081.666.385-6.871 3.966-.666-.384zm8.12 4.688.666.384-6.871 3.967-.666-.385zm1.871 1.08.666.385-6.87 3.967-.667-.385zM13.48 10.8 9.57 8.543a.796.46 0 0 1 0-.65l3.91-2.258a.796.46 0 0 1 1.126 0l3.91 2.258a.796.46 0 0 1 0 .65l-3.91 2.257a.796.46 0 0 1-1.126 0zm-3.14-2.582 3.703 2.138 3.704-2.138-3.704-2.139z"></path><path class="cls-1" d="m14.958 5.142.666.385-.936.54-.666-.385zm1.249.721.666.385-.936.54-.666-.385zm1.249.721.666.385-.936.54-.666-.385zm1.249.721.666.385-.936.54-.666-.385zm-9.053.9.667.385-.936.54-.667-.385zm1.25.721.665.385-.935.54-.667-.385zm1.248.721.666.385-.936.54-.666-.385zm1.25.721.665.385-.936.54-.666-.385z"></path><path class="cls-1" d="m13.126 5.142.936.54-.666.385-.936-.54zm-1.249.721.936.54-.666.385-.936-.54zm-1.249.721.936.54-.666.385-.936-.54zm-1.249.721.936.54-.666.385-.936-.54zm9.053.9.935.54-.666.385-.936-.54zm-1.25.721.936.54-.666.385-.936-.54zm-1.248.721.936.54-.667.385-.936-.54zm-1.25.721.937.54-.667.385-.935-.54z"></path></g></svg></g></g><g opacity="1"><g id="0cac01b8-a0fa-4880-966b-7ca4bf16f730" transform="translate(0 0)"><svg x="-1855" y="1335" height="108.05" width="123" viewBox="0 0 32.544 28.588"><path d="M10.115 6.02v14.218l7.873-4.317V1.475z" fill="#b8b8bb" fill-rule="evenodd" stroke="#83838a" stroke-linejoin="round" stroke-width=".268"></path><path d="m.265 2.228 9.85 3.792v14.218l-9.85-8.53z" fill="#d2d2d4" fill-rule="evenodd" stroke="#83838a" stroke-linejoin="round" stroke-width=".265"></path><path d="m10.115 6.02 7.873-4.545L3.548.332.265 2.228z" fill="#ececed" fill-rule="evenodd" stroke="#83838a" stroke-linejoin="round" stroke-width=".265"></path><path d="m.265 11.707 9.85 8.531 7.873-4.317V1.475L3.392.271.265 2.077z" fill="none" stroke="#000000" stroke-width=".529"></path><path d="m22.429 3.65-8.208 4.74 14.827 10.397 3.231-1.865z" fill="#ececed" fill-rule="evenodd" stroke="#83838a" stroke-width=".268"></path><path d="M14.22 8.391v14.218l14.777 5.687.051-9.509z" fill="#d2d2d4" fill-rule="evenodd" stroke="#83838a" stroke-width=".265"></path><path d="m29.048 18.787 3.231-1.865V26.4l-3.282 1.897z" fill="#b8b8bb" fill-rule="evenodd" stroke="#83838a" stroke-width=".265"></path><path d="m22.429 3.65-8.208 4.74v14.22l14.776 5.686 3.282-1.896v-9.478z" fill="none" stroke="#000000" stroke-width=".529"></path><path d="M25.604 20.872c-.071-.975-.928-2.116-1.982-2.598a2.547 2.547 0 0 0-.398-.145c-.566-.909-1.446-1.739-2.441-2.194-1.501-.688-2.76-.294-3.057.871-1.061-.091-1.77.532-1.77 1.598 0 1.436 1.271 3.18 2.84 3.898l5.961 2.73c1.411.645 2.555.121 2.555-1.17 0-1.004-.695-2.2-1.708-2.99zm-.847 3.38-5.961-2.73c-1.099-.502-1.988-1.723-1.988-2.728 0-.917.74-1.337 1.704-1.022v-.018c0-1.149 1.016-1.614 2.27-1.04.95.435 1.763 1.34 2.102 2.252.198-.065.456-.042.738.087.626.287 1.135.986 1.135 1.56a.657.657 0 0 1-.156.455c.052.018.105.041.156.065.94.43 1.704 1.478 1.704 2.339 0 .86-.763 1.21-1.704.78z" fill="#4286c5"></path></svg></g></g></g><g pointer-events="auto"></g><g pointer-events="auto"></g><g pointer-events="auto"><g></g><g></g><g></g><g></g><g></g><g></g><g></g><g></g><g></g><g></g></g></g></svg>